<svg width="418" height="124" viewBox="0 0 418 124" fill="none" xmlns="http://www.w3.org/2000/svg">
<rect x="6.5" y="6.5" width="406" height="111" stroke="black"/>
<path d="M39.4318 91H32.0455L53.4091 32.8182H60.6818L82.0455 91H74.6591L57.2727 42.0227H56.8182L39.4318 91ZM42.1591 68.2727H71.9318V74.5227H42.1591V68.2727ZM91.108 91V32.8182H97.8125V54.2955H98.3807C98.8731 53.5379 99.5549 52.572 100.426 51.3977C101.316 50.2045 102.585 49.1439 104.233 48.2159C105.9 47.2689 108.153 46.7955 110.994 46.7955C114.669 46.7955 117.907 47.714 120.71 49.5511C123.513 51.3883 125.701 53.9924 127.273 57.3636C128.845 60.7348 129.631 64.7121 129.631 69.2955C129.631 73.9167 128.845 77.9223 127.273 81.3125C125.701 84.6837 123.523 87.2973 120.739 89.1534C117.955 90.9905 114.744 91.9091 111.108 91.9091C108.305 91.9091 106.061 91.4451 104.375 90.517C102.689 89.5701 101.392 88.5 100.483 87.3068C99.5739 86.0947 98.8731 85.0909 98.3807 84.2955H97.5852V91H91.108ZM97.6989 69.1818C97.6989 72.4773 98.1818 75.3845 99.1477 77.9034C100.114 80.4034 101.525 82.3636 103.381 83.7841C105.237 85.1856 107.509 85.8864 110.199 85.8864C113.002 85.8864 115.341 85.1477 117.216 83.6705C119.11 82.1742 120.53 80.1667 121.477 77.6477C122.443 75.1098 122.926 72.2879 122.926 69.1818C122.926 66.1136 122.453 63.3485 121.506 60.8864C120.578 58.4053 119.167 56.4451 117.273 55.0057C115.398 53.5473 113.04 52.8182 110.199 52.8182C107.472 52.8182 105.18 53.5095 103.324 54.892C101.468 56.2557 100.066 58.1686 99.1193 60.6307C98.1723 63.0739 97.6989 65.9242 97.6989 69.1818ZM157.614 91.9091C153.674 91.9091 150.218 90.9716 147.244 89.0966C144.29 87.2216 141.979 84.5985 140.312 81.2273C138.665 77.8561 137.841 73.9167 137.841 69.4091C137.841 64.8636 138.665 60.8958 140.312 57.5057C141.979 54.1155 144.29 51.483 147.244 49.608C150.218 47.733 153.674 46.7955 157.614 46.7955C161.553 46.7955 165 47.733 167.955 49.608C170.928 51.483 173.239 54.1155 174.886 57.5057C176.553 60.8958 177.386 64.8636 177.386 69.4091C177.386 73.9167 176.553 77.8561 174.886 81.2273C173.239 84.5985 170.928 87.2216 167.955 89.0966C165 90.9716 161.553 91.9091 157.614 91.9091ZM157.614 85.8864C160.606 85.8864 163.068 85.1193 165 83.5852C166.932 82.0511 168.362 80.0341 169.29 77.5341C170.218 75.0341 170.682 72.3258 170.682 69.4091C170.682 66.4924 170.218 63.7746 169.29 61.2557C168.362 58.7367 166.932 56.7008 165 55.1477C163.068 53.5947 160.606 52.8182 157.614 52.8182C154.621 52.8182 152.159 53.5947 150.227 55.1477C148.295 56.7008 146.866 58.7367 145.938 61.2557C145.009 63.7746 144.545 66.4924 144.545 69.4091C144.545 72.3258 145.009 75.0341 145.938 77.5341C146.866 80.0341 148.295 82.0511 150.227 83.5852C152.159 85.1193 154.621 85.8864 157.614 85.8864ZM215.121 73.1591V47.3636H221.825V91H215.121V83.6136H214.666C213.643 85.8295 212.053 87.714 209.893 89.267C207.734 90.8011 205.007 91.5682 201.712 91.5682C198.984 91.5682 196.56 90.9716 194.439 89.7784C192.318 88.5663 190.651 86.7481 189.439 84.3239C188.227 81.8807 187.621 78.803 187.621 75.0909V47.3636H194.325V74.6364C194.325 77.8182 195.215 80.3561 196.996 82.25C198.795 84.1439 201.087 85.0909 203.871 85.0909C205.537 85.0909 207.232 84.6648 208.956 83.8125C210.698 82.9602 212.157 81.6534 213.331 79.892C214.524 78.1307 215.121 75.8864 215.121 73.1591ZM253.082 47.3636V53.0455H230.469V47.3636H253.082ZM237.06 36.9091H243.764V78.5C243.764 80.3939 244.039 81.8144 244.588 82.7614C245.156 83.6894 245.876 84.3144 246.747 84.6364C247.637 84.9394 248.575 85.0909 249.56 85.0909C250.298 85.0909 250.904 85.053 251.378 84.9773C251.851 84.8826 252.23 84.8068 252.514 84.75L253.878 90.7727C253.423 90.9432 252.789 91.1136 251.974 91.2841C251.16 91.4735 250.128 91.5682 248.878 91.5682C246.984 91.5682 245.128 91.161 243.31 90.3466C241.51 89.5322 240.014 88.2917 238.821 86.625C237.647 84.9583 237.06 82.8561 237.06 80.3182V36.9091Z" fill="black"/>
<path d="M324.759 32.8182H331.804V71.3409C331.804 75.3182 330.866 78.8693 328.991 81.9943C327.135 85.1004 324.512 87.553 321.122 89.3523C317.732 91.1326 313.755 92.0227 309.19 92.0227C304.626 92.0227 300.649 91.1326 297.259 89.3523C293.868 87.553 291.236 85.1004 289.361 81.9943C287.505 78.8693 286.577 75.3182 286.577 71.3409V32.8182H293.622V70.7727C293.622 73.6136 294.247 76.142 295.497 78.358C296.747 80.5549 298.527 82.2879 300.838 83.5568C303.168 84.8068 305.952 85.4318 309.19 85.4318C312.429 85.4318 315.213 84.8068 317.543 83.5568C319.872 82.2879 321.652 80.5549 322.884 78.358C324.134 76.142 324.759 73.6136 324.759 70.7727V32.8182ZM375.874 57.1364L369.851 58.8409C369.472 57.8371 368.913 56.8617 368.175 55.9148C367.455 54.9489 366.47 54.1534 365.22 53.5284C363.97 52.9034 362.37 52.5909 360.419 52.5909C357.749 52.5909 355.523 53.2064 353.743 54.4375C351.982 55.6496 351.101 57.1932 351.101 59.0682C351.101 60.7348 351.707 62.0511 352.919 63.017C354.131 63.983 356.025 64.7879 358.601 65.4318L365.078 67.0227C368.98 67.9697 371.887 69.4186 373.8 71.3693C375.713 73.3011 376.669 75.7917 376.669 78.8409C376.669 81.3409 375.949 83.5758 374.51 85.5455C373.089 87.5152 371.101 89.0682 368.544 90.2045C365.987 91.3409 363.014 91.9091 359.624 91.9091C355.173 91.9091 351.489 90.9432 348.572 89.0114C345.656 87.0795 343.809 84.2576 343.033 80.5455L349.396 78.9545C350.002 81.303 351.148 83.0644 352.834 84.2386C354.538 85.4129 356.764 86 359.51 86C362.635 86 365.116 85.3371 366.953 84.0114C368.809 82.6667 369.737 81.0568 369.737 79.1818C369.737 77.6667 369.207 76.3977 368.146 75.375C367.086 74.3333 365.457 73.5568 363.26 73.0455L355.987 71.3409C351.991 70.3939 349.055 68.9261 347.18 66.9375C345.324 64.9299 344.396 62.4205 344.396 59.4091C344.396 56.947 345.088 54.7689 346.47 52.875C347.872 50.9811 349.775 49.4943 352.18 48.4148C354.605 47.3352 357.351 46.7955 360.419 46.7955C364.737 46.7955 368.127 47.7424 370.589 49.6364C373.071 51.5303 374.832 54.0303 375.874 57.1364Z" fill="#FB5711"/>
<rect width="12" height="12" fill="black"/>
<rect y="112" width="12" height="12" fill="black"/>
<rect x="406" y="112" width="12" height="12" fill="black"/>
<rect x="406" width="12" height="12" fill="black"/>
</svg>
