<svg width="261" height="124" viewBox="0 0 261 124" fill="none" xmlns="http://www.w3.org/2000/svg">
<rect x="6" y="6.5" width="249" height="111" stroke="black"/>
<path d="M36.5455 91V32.8182H71.4318V39.0682H43.5909V58.7273H68.8182V64.9773H43.5909V91H36.5455ZM78.6193 91H71.233L92.5966 32.8182H99.8693L121.233 91H113.847L96.4602 42.0227H96.0057L78.6193 91ZM81.3466 68.2727H111.119V74.5227H81.3466V68.2727ZM148.697 72.8182H156.425L162.902 81.3409L164.607 83.6136L174.266 96.4545H166.538L160.175 87.9318L158.584 85.7727L148.697 72.8182ZM176.652 61.9091C176.652 68.0455 175.544 73.3485 173.328 77.8182C171.112 82.2879 168.072 85.7348 164.209 88.1591C160.345 90.5833 155.932 91.7955 150.97 91.7955C146.008 91.7955 141.595 90.5833 137.732 88.1591C133.868 85.7348 130.828 82.2879 128.612 77.8182C126.396 73.3485 125.288 68.0455 125.288 61.9091C125.288 55.7727 126.396 50.4697 128.612 46C130.828 41.5303 133.868 38.0833 137.732 35.6591C141.595 33.2348 146.008 32.0227 150.97 32.0227C155.932 32.0227 160.345 33.2348 164.209 35.6591C168.072 38.0833 171.112 41.5303 173.328 46C175.544 50.4697 176.652 55.7727 176.652 61.9091ZM169.834 61.9091C169.834 56.8712 168.991 52.6193 167.305 49.1534C165.639 45.6875 163.375 43.0644 160.516 41.2841C157.675 39.5038 154.493 38.6136 150.97 38.6136C147.447 38.6136 144.256 39.5038 141.396 41.2841C138.555 43.0644 136.292 45.6875 134.607 49.1534C132.94 52.6193 132.107 56.8712 132.107 61.9091C132.107 66.947 132.94 71.1989 134.607 74.6648C136.292 78.1307 138.555 80.7538 141.396 82.5341C144.256 84.3144 147.447 85.2045 150.97 85.2045C154.493 85.2045 157.675 84.3144 160.516 82.5341C163.375 80.7538 165.639 78.1307 167.305 74.6648C168.991 71.1989 169.834 66.947 169.834 61.9091Z" fill="#FB5711"/>
<path d="M218.499 57.1364L212.476 58.8409C212.097 57.8371 211.538 56.8617 210.8 55.9148C210.08 54.9489 209.095 54.1534 207.845 53.5284C206.595 52.9034 204.995 52.5909 203.044 52.5909C200.374 52.5909 198.148 53.2064 196.368 54.4375C194.607 55.6496 193.726 57.1932 193.726 59.0682C193.726 60.7348 194.332 62.0511 195.544 63.017C196.756 63.983 198.65 64.7879 201.226 65.4318L207.703 67.0227C211.605 67.9697 214.512 69.4186 216.425 71.3693C218.338 73.3011 219.294 75.7917 219.294 78.8409C219.294 81.3409 218.574 83.5758 217.135 85.5455C215.714 87.5152 213.726 89.0682 211.169 90.2045C208.612 91.3409 205.639 91.9091 202.249 91.9091C197.798 91.9091 194.114 90.9432 191.197 89.0114C188.281 87.0795 186.434 84.2576 185.658 80.5455L192.021 78.9545C192.627 81.303 193.773 83.0644 195.459 84.2386C197.163 85.4129 199.389 86 202.135 86C205.26 86 207.741 85.3371 209.578 84.0114C211.434 82.6667 212.362 81.0568 212.362 79.1818C212.362 77.6667 211.832 76.3977 210.771 75.375C209.711 74.3333 208.082 73.5568 205.885 73.0455L198.612 71.3409C194.616 70.3939 191.68 68.9261 189.805 66.9375C187.949 64.9299 187.021 62.4205 187.021 59.4091C187.021 56.947 187.713 54.7689 189.095 52.875C190.497 50.9811 192.4 49.4943 194.805 48.4148C197.23 47.3352 199.976 46.7955 203.044 46.7955C207.362 46.7955 210.752 47.7424 213.214 49.6364C215.696 51.5303 217.457 54.0303 218.499 57.1364Z" fill="black"/>
<rect width="12" height="12" fill="black"/>
<rect y="112" width="12" height="12" fill="black"/>
<rect x="249" y="112" width="12" height="12" fill="black"/>
<rect x="249" width="12" height="12" fill="black"/>
</svg>
