<svg width="567" height="124" viewBox="0 0 567 124" fill="none" xmlns="http://www.w3.org/2000/svg">
<rect x="5.5" y="6.5" width="556" height="111" stroke="white"/>
<path d="M36.0455 91V32.8182H43.0909V58.7273H74.1136V32.8182H81.1591V91H74.1136V64.9773H43.0909V91H36.0455ZM112.082 91.9091C108.143 91.9091 104.687 90.9716 101.713 89.0966C98.7585 87.2216 96.4479 84.5985 94.7812 81.2273C93.1335 77.8561 92.3097 73.9167 92.3097 69.4091C92.3097 64.8636 93.1335 60.8958 94.7812 57.5057C96.4479 54.1155 98.7585 51.483 101.713 49.608C104.687 47.733 108.143 46.7955 112.082 46.7955C116.022 46.7955 119.469 47.733 122.423 49.608C125.397 51.483 127.707 54.1155 129.355 57.5057C131.022 60.8958 131.855 64.8636 131.855 69.4091C131.855 73.9167 131.022 77.8561 129.355 81.2273C127.707 84.5985 125.397 87.2216 122.423 89.0966C119.469 90.9716 116.022 91.9091 112.082 91.9091ZM112.082 85.8864C115.075 85.8864 117.537 85.1193 119.469 83.5852C121.401 82.0511 122.83 80.0341 123.759 77.5341C124.687 75.0341 125.151 72.3258 125.151 69.4091C125.151 66.4924 124.687 63.7746 123.759 61.2557C122.83 58.7367 121.401 56.7008 119.469 55.1477C117.537 53.5947 115.075 52.8182 112.082 52.8182C109.09 52.8182 106.628 53.5947 104.696 55.1477C102.764 56.7008 101.334 58.7367 100.406 61.2557C99.4782 63.7746 99.0142 66.4924 99.0142 69.4091C99.0142 72.3258 99.4782 75.0341 100.406 77.5341C101.334 80.0341 102.764 82.0511 104.696 83.5852C106.628 85.1193 109.09 85.8864 112.082 85.8864ZM150.491 91L137.196 47.3636H144.241L153.673 80.7727H154.128L163.446 47.3636H170.605L179.81 80.6591H180.264L189.696 47.3636H196.741L183.446 91H176.855L167.31 57.4773H166.628L157.082 91H150.491ZM236.06 32.8182V91H229.014V32.8182H236.06ZM268.254 47.3636V53.0455H245.641V47.3636H268.254ZM252.232 36.9091H258.936V78.5C258.936 80.3939 259.211 81.8144 259.76 82.7614C260.328 83.6894 261.048 84.3144 261.919 84.6364C262.809 84.9394 263.747 85.0909 264.732 85.0909C265.47 85.0909 266.076 85.053 266.55 84.9773C267.023 84.8826 267.402 84.8068 267.686 84.75L269.05 90.7727C268.595 90.9432 267.961 91.1136 267.146 91.2841C266.332 91.4735 265.3 91.5682 264.05 91.5682C262.156 91.5682 260.3 91.161 258.482 90.3466C256.682 89.5322 255.186 88.2917 253.993 86.625C252.819 84.9583 252.232 82.8561 252.232 80.3182V36.9091Z" fill="white"/>
<path d="M312.317 91L296.408 32.8182H303.567L315.726 80.2045H316.294L328.68 32.8182H336.635L349.021 80.2045H349.589L361.749 32.8182H368.908L352.999 91H345.726L332.885 44.6364H332.43L319.589 91H312.317ZM390.442 91.9091C386.502 91.9091 383.046 90.9716 380.072 89.0966C377.118 87.2216 374.807 84.5985 373.141 81.2273C371.493 77.8561 370.669 73.9167 370.669 69.4091C370.669 64.8636 371.493 60.8958 373.141 57.5057C374.807 54.1155 377.118 51.483 380.072 49.608C383.046 47.733 386.502 46.7955 390.442 46.7955C394.381 46.7955 397.828 47.733 400.783 49.608C403.756 51.483 406.067 54.1155 407.714 57.5057C409.381 60.8958 410.214 64.8636 410.214 69.4091C410.214 73.9167 409.381 77.8561 407.714 81.2273C406.067 84.5985 403.756 87.2216 400.783 89.0966C397.828 90.9716 394.381 91.9091 390.442 91.9091ZM390.442 85.8864C393.434 85.8864 395.896 85.1193 397.828 83.5852C399.76 82.0511 401.19 80.0341 402.118 77.5341C403.046 75.0341 403.51 72.3258 403.51 69.4091C403.51 66.4924 403.046 63.7746 402.118 61.2557C401.19 58.7367 399.76 56.7008 397.828 55.1477C395.896 53.5947 393.434 52.8182 390.442 52.8182C387.449 52.8182 384.987 53.5947 383.055 55.1477C381.124 56.7008 379.694 58.7367 378.766 61.2557C377.838 63.7746 377.374 66.4924 377.374 69.4091C377.374 72.3258 377.838 75.0341 378.766 77.5341C379.694 80.0341 381.124 82.0511 383.055 83.5852C384.987 85.1193 387.449 85.8864 390.442 85.8864ZM420.449 91V47.3636H426.926V53.9545H427.381C428.176 51.7955 429.616 50.0436 431.699 48.6989C433.782 47.3542 436.131 46.6818 438.744 46.6818C439.237 46.6818 439.852 46.6913 440.591 46.7102C441.33 46.7292 441.888 46.7576 442.267 46.7955V53.6136C442.04 53.5568 441.519 53.4716 440.705 53.358C439.909 53.2254 439.066 53.1591 438.176 53.1591C436.055 53.1591 434.161 53.6042 432.494 54.4943C430.847 55.3655 429.54 56.5777 428.574 58.1307C427.627 59.6648 427.153 61.4167 427.153 63.3864V91H420.449ZM456.464 75.0909L456.351 66.7955H457.714L476.805 47.3636H485.101L464.76 67.9318H464.192L456.464 75.0909ZM450.214 91V32.8182H456.919V91H450.214ZM477.942 91L460.896 69.4091L465.669 64.75L486.464 91H477.942ZM524.639 57.1364L518.616 58.8409C518.238 57.8371 517.679 56.8617 516.94 55.9148C516.221 54.9489 515.236 54.1534 513.986 53.5284C512.736 52.9034 511.135 52.5909 509.185 52.5909C506.514 52.5909 504.289 53.2064 502.509 54.4375C500.747 55.6496 499.866 57.1932 499.866 59.0682C499.866 60.7348 500.473 62.0511 501.685 63.017C502.897 63.983 504.791 64.7879 507.366 65.4318L513.844 67.0227C517.745 67.9697 520.652 69.4186 522.565 71.3693C524.478 73.3011 525.435 75.7917 525.435 78.8409C525.435 81.3409 524.715 83.5758 523.276 85.5455C521.855 87.5152 519.866 89.0682 517.31 90.2045C514.753 91.3409 511.779 91.9091 508.389 91.9091C503.938 91.9091 500.255 90.9432 497.338 89.0114C494.421 87.0795 492.575 84.2576 491.798 80.5455L498.162 78.9545C498.768 81.303 499.914 83.0644 501.599 84.2386C503.304 85.4129 505.529 86 508.276 86C511.401 86 513.882 85.3371 515.719 84.0114C517.575 82.6667 518.503 81.0568 518.503 79.1818C518.503 77.6667 517.973 76.3977 516.912 75.375C515.851 74.3333 514.223 73.5568 512.026 73.0455L504.753 71.3409C500.757 70.3939 497.821 68.9261 495.946 66.9375C494.09 64.9299 493.162 62.4205 493.162 59.4091C493.162 56.947 493.853 54.7689 495.236 52.875C496.637 50.9811 498.541 49.4943 500.946 48.4148C503.37 47.3352 506.116 46.7955 509.185 46.7955C513.503 46.7955 516.893 47.7424 519.355 49.6364C521.836 51.5303 523.598 54.0303 524.639 57.1364Z" fill="#FB5711"/>
<rect width="12" height="12" fill="white"/>
<rect y="112" width="12" height="12" fill="white"/>
<rect x="555" y="112" width="12" height="12" fill="white"/>
<rect x="555" width="12" height="12" fill="white"/>
</svg>
