<svg width="792" height="520" viewBox="0 0 792 520" fill="none" xmlns="http://www.w3.org/2000/svg">
<path d="M1.92 86L24.96 30H31.36L54.24 86H44.32L26.4 40.64H29.76L11.68 86H1.92ZM13.28 75.2V67.2H42.96V75.2H13.28ZM61.6269 86V30H70.8269V86H61.6269ZM111.801 86V31.6H121.001V86H111.801ZM93.5606 38.4V30H139.241V38.4H93.5606ZM147.252 86V30H156.452V86H147.252ZM182.852 86V30H192.052V86H182.852ZM153.572 61.2V52.8H184.852V61.2H153.572ZM200.045 86L223.085 30H229.485L252.365 86H242.445L224.525 40.64H227.885L209.805 86H200.045ZM211.405 75.2V67.2H241.085V75.2H211.405ZM266.723 86V31.6H275.923V86H266.723ZM248.483 38.4V30H294.163V38.4H248.483ZM323.259 64.88V56.88H337.259C339.179 56.88 340.859 56.5067 342.299 55.76C343.793 54.96 344.966 53.8667 345.819 52.48C346.673 51.04 347.099 49.36 347.099 47.44C347.099 45.52 346.673 43.8667 345.819 42.48C344.966 41.04 343.793 39.9467 342.299 39.2C340.859 38.4 339.179 38 337.259 38H323.259V30H337.739C341.259 30 344.406 30.72 347.179 32.16C350.006 33.6 352.219 35.6267 353.819 38.24C355.473 40.8533 356.299 43.92 356.299 47.44C356.299 50.96 355.473 54.0267 353.819 56.64C352.219 59.2533 350.006 61.28 347.179 62.72C344.406 64.16 341.259 64.88 337.739 64.88H323.259ZM316.939 86V30H326.139V86H316.939ZM364.596 86V30H373.796V86H364.596ZM370.916 86V77.6H400.196V86H370.916ZM402.545 86L425.585 30H431.985L454.865 86H444.945L427.025 40.64H430.385L412.305 86H402.545ZM413.905 75.2V67.2H443.585V75.2H413.905ZM462.252 86V30H468.652L471.452 40.56V86H462.252ZM501.052 86L467.532 42.24L468.652 30L502.172 73.76L501.052 86ZM501.052 86L498.252 76.16V30H507.452V86H501.052ZM534.102 86.8C529.675 86.8 525.915 86 522.822 84.4C519.729 82.8 516.955 80.4533 514.502 77.36L520.742 71.12C522.289 73.36 524.129 75.12 526.262 76.4C528.395 77.6267 531.115 78.24 534.422 78.24C537.515 78.24 539.969 77.6 541.782 76.32C543.649 75.04 544.582 73.28 544.582 71.04C544.582 69.1733 544.102 67.6533 543.142 66.48C542.182 65.3067 540.902 64.3467 539.302 63.6C537.755 62.8 536.022 62.1067 534.102 61.52C532.235 60.88 530.342 60.1867 528.422 59.44C526.555 58.64 524.822 57.6533 523.222 56.48C521.675 55.3067 520.422 53.7867 519.462 51.92C518.502 50.0533 518.022 47.68 518.022 44.8C518.022 41.4933 518.822 38.6933 520.422 36.4C522.075 34.0533 524.289 32.2667 527.062 31.04C529.835 29.8133 532.929 29.2 536.342 29.2C540.022 29.2 543.302 29.92 546.182 31.36C549.115 32.8 551.489 34.64 553.302 36.88L547.062 43.12C545.462 41.3067 543.782 39.9733 542.022 39.12C540.315 38.2133 538.342 37.76 536.102 37.76C533.329 37.76 531.142 38.32 529.542 39.44C527.995 40.56 527.222 42.1333 527.222 44.16C527.222 45.8667 527.702 47.2533 528.662 48.32C529.622 49.3333 530.875 50.2133 532.422 50.96C534.022 51.6533 535.755 52.32 537.622 52.96C539.542 53.6 541.435 54.32 543.302 55.12C545.222 55.92 546.955 56.96 548.502 58.24C550.102 59.4667 551.382 61.0667 552.342 63.04C553.302 65.0133 553.782 67.4933 553.782 70.48C553.782 75.4933 551.995 79.4667 548.422 82.4C544.902 85.3333 540.129 86.8 534.102 86.8ZM561.755 95.36L567.195 85.2L570.155 84.4C569.835 85.04 569.462 85.5733 569.035 86C568.608 86.4267 568.102 86.64 567.515 86.64C566.288 86.64 565.142 86.1333 564.075 85.12C563.062 84.0533 562.555 82.72 562.555 81.12C562.555 79.4133 563.115 77.9733 564.235 76.8C565.408 75.5733 566.848 74.96 568.555 74.96C570.155 74.96 571.542 75.5733 572.715 76.8C573.942 77.9733 574.555 79.4133 574.555 81.12C574.555 81.8133 574.395 82.64 574.075 83.6C573.808 84.5067 573.302 85.68 572.555 87.12L566.635 98L561.755 95.36Z" fill="black"/>
<rect x="6.5" y="134.5" width="329" height="111" stroke="black"/>
<path d="M42.4 220V212H58.48C61.3067 212 63.4933 211.12 65.04 209.36C66.5867 207.6 67.36 205.573 67.36 203.28C67.36 201.733 67.0133 200.293 66.32 198.96C65.6267 197.627 64.6133 196.56 63.28 195.76C61.9467 194.96 60.3467 194.56 58.48 194.56H42.4V186.56H57.12C59.52 186.56 61.44 185.947 62.88 184.72C64.32 183.493 65.04 181.68 65.04 179.28C65.04 176.88 64.32 175.067 62.88 173.84C61.44 172.613 59.52 172 57.12 172H42.4V164H57.36C61.1467 164 64.2933 164.693 66.8 166.08C69.3067 167.467 71.1733 169.253 72.4 171.44C73.6267 173.627 74.24 175.973 74.24 178.48C74.24 181.413 73.4133 184 71.76 186.24C70.16 188.48 67.7867 190.293 64.64 191.68L65.36 188.8C68.88 190.24 71.6267 192.267 73.6 194.88C75.5733 197.493 76.56 200.56 76.56 204.08C76.56 206.96 75.84 209.6 74.4 212C73.0133 214.4 70.9333 216.347 68.16 217.84C65.44 219.28 62.08 220 58.08 220H42.4ZM36.08 220V164H45.28V220H36.08ZM107.446 220.8C103.232 220.8 99.4456 219.84 96.0856 217.92C92.7256 216 90.059 213.387 88.0856 210.08C86.1656 206.72 85.2056 202.933 85.2056 198.72V164H94.4056V198.64C94.4056 201.36 94.9656 203.733 96.0856 205.76C97.259 207.733 98.8323 209.28 100.806 210.4C102.779 211.467 104.992 212 107.446 212C109.952 212 112.166 211.467 114.086 210.4C116.006 209.28 117.526 207.733 118.646 205.76C119.766 203.733 120.326 201.387 120.326 198.72V164H129.526V198.8C129.526 203.013 128.566 206.773 126.646 210.08C124.726 213.387 122.112 216 118.806 217.92C115.499 219.84 111.712 220.8 107.446 220.8ZM141.08 220V164H150.28V220H141.08ZM162.408 220V164H171.608V220H162.408ZM168.728 220V211.6H198.008V220H168.728ZM212.713 220V211.6H227.433C231.273 211.6 234.633 210.773 237.513 209.12C240.446 207.467 242.713 205.173 244.313 202.24C245.966 199.253 246.793 195.813 246.793 191.92C246.793 188.08 245.966 184.693 244.313 181.76C242.659 178.827 240.366 176.533 237.433 174.88C234.553 173.227 231.219 172.4 227.433 172.4H212.713V164H227.673C231.726 164 235.486 164.72 238.953 166.16C242.419 167.547 245.433 169.52 247.993 172.08C250.606 174.587 252.633 177.547 254.073 180.96C255.513 184.32 256.233 188 256.233 192C256.233 195.947 255.513 199.627 254.073 203.04C252.633 206.453 250.633 209.44 248.073 212C245.513 214.507 242.499 216.48 239.033 217.92C235.566 219.307 231.833 220 227.833 220H212.713ZM206.393 220V164H215.593V220H206.393ZM281.211 220.8C276.785 220.8 273.025 220 269.931 218.4C266.838 216.8 264.065 214.453 261.611 211.36L267.851 205.12C269.398 207.36 271.238 209.12 273.371 210.4C275.505 211.627 278.225 212.24 281.531 212.24C284.625 212.24 287.078 211.6 288.891 210.32C290.758 209.04 291.691 207.28 291.691 205.04C291.691 203.173 291.211 201.653 290.251 200.48C289.291 199.307 288.011 198.347 286.411 197.6C284.865 196.8 283.131 196.107 281.211 195.52C279.345 194.88 277.451 194.187 275.531 193.44C273.665 192.64 271.931 191.653 270.331 190.48C268.785 189.307 267.531 187.787 266.571 185.92C265.611 184.053 265.131 181.68 265.131 178.8C265.131 175.493 265.931 172.693 267.531 170.4C269.185 168.053 271.398 166.267 274.171 165.04C276.945 163.813 280.038 163.2 283.451 163.2C287.131 163.2 290.411 163.92 293.291 165.36C296.225 166.8 298.598 168.64 300.411 170.88L294.171 177.12C292.571 175.307 290.891 173.973 289.131 173.12C287.425 172.213 285.451 171.76 283.211 171.76C280.438 171.76 278.251 172.32 276.651 173.44C275.105 174.56 274.331 176.133 274.331 178.16C274.331 179.867 274.811 181.253 275.771 182.32C276.731 183.333 277.985 184.213 279.531 184.96C281.131 185.653 282.865 186.32 284.731 186.96C286.651 187.6 288.545 188.32 290.411 189.12C292.331 189.92 294.065 190.96 295.611 192.24C297.211 193.467 298.491 195.067 299.451 197.04C300.411 199.013 300.891 201.493 300.891 204.48C300.891 209.493 299.105 213.467 295.531 216.4C292.011 219.333 287.238 220.8 281.211 220.8Z" fill="#FB5711"/>
<rect y="128" width="12" height="12" fill="black"/>
<rect x="344" y="128" width="12" height="12" fill="black"/>
<rect y="240" width="12" height="12" fill="black"/>
<rect x="344" y="240" width="12" height="12" fill="black"/>
<path d="M389.92 220L412.96 164H419.36L442.24 220H432.32L414.4 174.64H417.76L399.68 220H389.92ZM401.28 209.2V201.2H430.96V209.2H401.28ZM449.627 220V164H456.027L458.827 174.56V220H449.627ZM488.427 220L454.907 176.24L456.027 164L489.547 207.76L488.427 220ZM488.427 220L485.627 210.16V164H494.827V220H488.427ZM513.291 220V211.6H528.011C531.851 211.6 535.211 210.773 538.091 209.12C541.024 207.467 543.291 205.173 544.891 202.24C546.544 199.253 547.371 195.813 547.371 191.92C547.371 188.08 546.544 184.693 544.891 181.76C543.237 178.827 540.944 176.533 538.011 174.88C535.131 173.227 531.797 172.4 528.011 172.4H513.291V164H528.251C532.304 164 536.064 164.72 539.531 166.16C542.997 167.547 546.011 169.52 548.571 172.08C551.184 174.587 553.211 177.547 554.651 180.96C556.091 184.32 556.811 188 556.811 192C556.811 195.947 556.091 199.627 554.651 203.04C553.211 206.453 551.211 209.44 548.651 212C546.091 214.507 543.077 216.48 539.611 217.92C536.144 219.307 532.411 220 528.411 220H513.291ZM506.971 220V164H516.171V220H506.971ZM597.805 220.8C593.378 220.8 589.618 220 586.525 218.4C583.432 216.8 580.658 214.453 578.205 211.36L584.445 205.12C585.992 207.36 587.832 209.12 589.965 210.4C592.098 211.627 594.818 212.24 598.125 212.24C601.218 212.24 603.672 211.6 605.485 210.32C607.352 209.04 608.285 207.28 608.285 205.04C608.285 203.173 607.805 201.653 606.845 200.48C605.885 199.307 604.605 198.347 603.005 197.6C601.458 196.8 599.725 196.107 597.805 195.52C595.938 194.88 594.045 194.187 592.125 193.44C590.258 192.64 588.525 191.653 586.925 190.48C585.378 189.307 584.125 187.787 583.165 185.92C582.205 184.053 581.725 181.68 581.725 178.8C581.725 175.493 582.525 172.693 584.125 170.4C585.778 168.053 587.992 166.267 590.765 165.04C593.538 163.813 596.632 163.2 600.045 163.2C603.725 163.2 607.005 163.92 609.885 165.36C612.818 166.8 615.192 168.64 617.005 170.88L610.765 177.12C609.165 175.307 607.485 173.973 605.725 173.12C604.018 172.213 602.045 171.76 599.805 171.76C597.032 171.76 594.845 172.32 593.245 173.44C591.698 174.56 590.925 176.133 590.925 178.16C590.925 179.867 591.405 181.253 592.365 182.32C593.325 183.333 594.578 184.213 596.125 184.96C597.725 185.653 599.458 186.32 601.325 186.96C603.245 187.6 605.138 188.32 607.005 189.12C608.925 189.92 610.658 190.96 612.205 192.24C613.805 193.467 615.085 195.067 616.045 197.04C617.005 199.013 617.485 201.493 617.485 204.48C617.485 209.493 615.698 213.467 612.125 216.4C608.605 219.333 603.832 220.8 597.805 220.8ZM626.658 220V164H635.858V220H626.658ZM662.258 220V164H671.458V220H662.258ZM632.978 195.2V186.8H664.258V195.2H632.978ZM683.611 220V164H692.811V220H683.611ZM711.259 198.88V190.88H725.259C727.179 190.88 728.859 190.507 730.299 189.76C731.793 188.96 732.966 187.867 733.819 186.48C734.673 185.04 735.099 183.36 735.099 181.44C735.099 179.52 734.673 177.867 733.819 176.48C732.966 175.04 731.793 173.947 730.299 173.2C728.859 172.4 727.179 172 725.259 172H711.259V164H725.739C729.259 164 732.406 164.72 735.179 166.16C738.006 167.6 740.219 169.627 741.819 172.24C743.473 174.853 744.299 177.92 744.299 181.44C744.299 184.96 743.473 188.027 741.819 190.64C740.219 193.253 738.006 195.28 735.179 196.72C732.406 198.16 729.259 198.88 725.739 198.88H711.259ZM704.939 220V164H714.139V220H704.939ZM768.821 220.8C764.394 220.8 760.634 220 757.541 218.4C754.447 216.8 751.674 214.453 749.221 211.36L755.461 205.12C757.007 207.36 758.847 209.12 760.981 210.4C763.114 211.627 765.834 212.24 769.141 212.24C772.234 212.24 774.687 211.6 776.501 210.32C778.367 209.04 779.301 207.28 779.301 205.04C779.301 203.173 778.821 201.653 777.861 200.48C776.901 199.307 775.621 198.347 774.021 197.6C772.474 196.8 770.741 196.107 768.821 195.52C766.954 194.88 765.061 194.187 763.141 193.44C761.274 192.64 759.541 191.653 757.941 190.48C756.394 189.307 755.141 187.787 754.181 185.92C753.221 184.053 752.741 181.68 752.741 178.8C752.741 175.493 753.541 172.693 755.141 170.4C756.794 168.053 759.007 166.267 761.781 165.04C764.554 163.813 767.647 163.2 771.061 163.2C774.741 163.2 778.021 163.92 780.901 165.36C783.834 166.8 786.207 168.64 788.021 170.88L781.781 177.12C780.181 175.307 778.501 173.973 776.741 173.12C775.034 172.213 773.061 171.76 770.821 171.76C768.047 171.76 765.861 172.32 764.261 173.44C762.714 174.56 761.941 176.133 761.941 178.16C761.941 179.867 762.421 181.253 763.381 182.32C764.341 183.333 765.594 184.213 767.141 184.96C768.741 185.653 770.474 186.32 772.341 186.96C774.261 187.6 776.154 188.32 778.021 189.12C779.941 189.92 781.674 190.96 783.221 192.24C784.821 193.467 786.101 195.067 787.061 197.04C788.021 199.013 788.501 201.493 788.501 204.48C788.501 209.493 786.714 213.467 783.141 216.4C779.621 219.333 774.847 220.8 768.821 220.8Z" fill="black"/>
<path d="M23.6 337.6L1.76 304H12.4L29.44 330.8H24.48L41.52 304H52L30 337.6H23.6ZM22.32 360V331.84H31.52V360H22.32ZM80.9025 360.8C76.9025 360.8 73.1692 360.053 69.7025 358.56C66.2358 357.067 63.1958 355.013 60.5825 352.4C57.9692 349.733 55.9158 346.667 54.4225 343.2C52.9825 339.68 52.2625 335.92 52.2625 331.92C52.2625 327.92 52.9825 324.187 54.4225 320.72C55.9158 317.253 57.9425 314.213 60.5025 311.6C63.1158 308.933 66.1292 306.88 69.5425 305.44C73.0092 303.947 76.7425 303.2 80.7425 303.2C84.7425 303.2 88.4492 303.947 91.8625 305.44C95.3292 306.88 98.3692 308.933 100.983 311.6C103.596 314.213 105.623 317.28 107.063 320.8C108.556 324.267 109.303 328 109.303 332C109.303 336 108.556 339.76 107.063 343.28C105.623 346.747 103.596 349.787 100.983 352.4C98.4225 355.013 95.4092 357.067 91.9425 358.56C88.5292 360.053 84.8492 360.8 80.9025 360.8ZM80.7425 352C84.5292 352 87.8358 351.147 90.6625 349.44C93.5425 347.733 95.7825 345.387 97.3825 342.4C99.0358 339.36 99.8625 335.867 99.8625 331.92C99.8625 328.987 99.3825 326.32 98.4225 323.92C97.5158 321.467 96.2092 319.36 94.5025 317.6C92.7958 315.787 90.7692 314.4 88.4225 313.44C86.1292 312.48 83.5692 312 80.7425 312C77.0092 312 73.7025 312.853 70.8225 314.56C67.9958 316.213 65.7558 318.533 64.1025 321.52C62.5025 324.507 61.7025 327.973 61.7025 331.92C61.7025 334.853 62.1558 337.573 63.0625 340.08C64.0225 342.533 65.3292 344.64 66.9825 346.4C68.6892 348.16 70.7158 349.547 73.0625 350.56C75.4092 351.52 77.9692 352 80.7425 352ZM140.258 360.8C136.045 360.8 132.258 359.84 128.898 357.92C125.538 356 122.871 353.387 120.898 350.08C118.978 346.72 118.018 342.933 118.018 338.72V304H127.218V338.64C127.218 341.36 127.778 343.733 128.898 345.76C130.071 347.733 131.645 349.28 133.618 350.4C135.591 351.467 137.805 352 140.258 352C142.765 352 144.978 351.467 146.898 350.4C148.818 349.28 150.338 347.733 151.458 345.76C152.578 343.733 153.138 341.387 153.138 338.72V304H162.338V338.8C162.338 343.013 161.378 346.773 159.458 350.08C157.538 353.387 154.925 356 151.618 357.92C148.311 359.84 144.525 360.8 140.258 360.8ZM180.213 336.24V328.64H194.373C197.199 328.64 199.386 327.92 200.933 326.48C202.533 324.987 203.333 322.933 203.333 320.32C203.333 317.973 202.559 316 201.013 314.4C199.466 312.8 197.279 312 194.453 312H180.213V304H194.853C198.373 304 201.466 304.72 204.133 306.16C206.799 307.547 208.853 309.467 210.293 311.92C211.786 314.32 212.533 317.067 212.533 320.16C212.533 323.413 211.786 326.24 210.293 328.64C208.853 331.04 206.799 332.907 204.133 334.24C201.466 335.573 198.373 336.24 194.853 336.24H180.213ZM173.893 360V304H183.093V360H173.893ZM204.613 360L185.013 335.68L193.573 332.56L216.213 360H204.613Z" fill="black"/>
<rect x="257.5" y="274.5" width="440" height="111" stroke="black"/>
<path d="M293.4 338.88V330.88H307.4C309.32 330.88 311 330.507 312.44 329.76C313.933 328.96 315.107 327.867 315.96 326.48C316.813 325.04 317.24 323.36 317.24 321.44C317.24 319.52 316.813 317.867 315.96 316.48C315.107 315.04 313.933 313.947 312.44 313.2C311 312.4 309.32 312 307.4 312H293.4V304H307.88C311.4 304 314.547 304.72 317.32 306.16C320.147 307.6 322.36 309.627 323.96 312.24C325.613 314.853 326.44 317.92 326.44 321.44C326.44 324.96 325.613 328.027 323.96 330.64C322.36 333.253 320.147 335.28 317.32 336.72C314.547 338.16 311.4 338.88 307.88 338.88H293.4ZM287.08 360V304H296.28V360H287.08ZM341.056 336.24V328.64H355.216C358.043 328.64 360.23 327.92 361.776 326.48C363.376 324.987 364.176 322.933 364.176 320.32C364.176 317.973 363.403 316 361.856 314.4C360.31 312.8 358.123 312 355.296 312H341.056V304H355.696C359.216 304 362.31 304.72 364.976 306.16C367.643 307.547 369.696 309.467 371.136 311.92C372.63 314.32 373.376 317.067 373.376 320.16C373.376 323.413 372.63 326.24 371.136 328.64C369.696 331.04 367.643 332.907 364.976 334.24C362.31 335.573 359.216 336.24 355.696 336.24H341.056ZM334.736 360V304H343.936V360H334.736ZM365.456 360L345.856 335.68L354.416 332.56L377.056 360H365.456ZM408.934 360.8C404.934 360.8 401.2 360.053 397.734 358.56C394.267 357.067 391.227 355.013 388.614 352.4C386 349.733 383.947 346.667 382.454 343.2C381.014 339.68 380.294 335.92 380.294 331.92C380.294 327.92 381.014 324.187 382.454 320.72C383.947 317.253 385.974 314.213 388.534 311.6C391.147 308.933 394.16 306.88 397.574 305.44C401.04 303.947 404.774 303.2 408.774 303.2C412.774 303.2 416.48 303.947 419.894 305.44C423.36 306.88 426.4 308.933 429.014 311.6C431.627 314.213 433.654 317.28 435.094 320.8C436.587 324.267 437.334 328 437.334 332C437.334 336 436.587 339.76 435.094 343.28C433.654 346.747 431.627 349.787 429.014 352.4C426.454 355.013 423.44 357.067 419.974 358.56C416.56 360.053 412.88 360.8 408.934 360.8ZM408.774 352C412.56 352 415.867 351.147 418.694 349.44C421.574 347.733 423.814 345.387 425.414 342.4C427.067 339.36 427.894 335.867 427.894 331.92C427.894 328.987 427.414 326.32 426.454 323.92C425.547 321.467 424.24 319.36 422.534 317.6C420.827 315.787 418.8 314.4 416.454 313.44C414.16 312.48 411.6 312 408.774 312C405.04 312 401.734 312.853 398.854 314.56C396.027 316.213 393.787 318.533 392.134 321.52C390.534 324.507 389.734 327.973 389.734 331.92C389.734 334.853 390.187 337.573 391.094 340.08C392.054 342.533 393.36 344.64 395.014 346.4C396.72 348.16 398.747 349.547 401.094 350.56C403.44 351.52 406 352 408.774 352ZM452.562 360.8C449.309 360.8 446.402 360.16 443.842 358.88C441.335 357.547 439.309 355.787 437.762 353.6L444.242 347.68C445.149 349.067 446.295 350.133 447.682 350.88C449.069 351.627 450.589 352 452.242 352C454.055 352 455.602 351.627 456.882 350.88C458.162 350.133 459.149 349.067 459.842 347.68C460.535 346.293 460.882 344.64 460.882 342.72V304H470.082V342C470.082 345.733 469.335 349.013 467.842 351.84C466.402 354.667 464.375 356.88 461.762 358.48C459.149 360.027 456.082 360.8 452.562 360.8ZM481.533 360V304H490.733V360H481.533ZM487.853 360V351.6H519.213V360H487.853ZM487.853 335.44V327.36H516.493V335.44H487.853ZM487.853 312.4V304H518.813V312.4H487.853ZM553.067 360.8C549.014 360.8 545.254 360.08 541.787 358.64C538.374 357.147 535.387 355.093 532.827 352.48C530.267 349.813 528.294 346.747 526.907 343.28C525.52 339.76 524.827 336 524.827 332C524.827 328 525.52 324.267 526.907 320.8C528.294 317.28 530.267 314.213 532.827 311.6C535.387 308.987 538.374 306.933 541.787 305.44C545.254 303.947 549.014 303.2 553.067 303.2C557.6 303.2 561.52 303.947 564.827 305.44C568.134 306.933 571.067 308.96 573.627 311.52L567.387 317.76C565.734 315.947 563.707 314.533 561.307 313.52C558.96 312.507 556.214 312 553.067 312C550.294 312 547.76 312.48 545.467 313.44C543.174 314.4 541.174 315.787 539.467 317.6C537.814 319.36 536.534 321.467 535.627 323.92C534.72 326.373 534.267 329.067 534.267 332C534.267 334.933 534.72 337.627 535.627 340.08C536.534 342.533 537.814 344.667 539.467 346.48C541.174 348.24 543.174 349.6 545.467 350.56C547.76 351.52 550.294 352 553.067 352C556.48 352 559.36 351.493 561.707 350.48C564.107 349.413 566.134 347.973 567.787 346.16L574.027 352.4C571.467 355.013 568.454 357.067 564.987 358.56C561.52 360.053 557.547 360.8 553.067 360.8ZM595.144 360V305.6H604.344V360H595.144ZM576.904 312.4V304H622.584V312.4H576.904ZM642.993 360.8C638.566 360.8 634.806 360 631.713 358.4C628.619 356.8 625.846 354.453 623.393 351.36L629.633 345.12C631.179 347.36 633.019 349.12 635.153 350.4C637.286 351.627 640.006 352.24 643.313 352.24C646.406 352.24 648.859 351.6 650.673 350.32C652.539 349.04 653.473 347.28 653.473 345.04C653.473 343.173 652.993 341.653 652.033 340.48C651.073 339.307 649.793 338.347 648.193 337.6C646.646 336.8 644.913 336.107 642.993 335.52C641.126 334.88 639.233 334.187 637.313 333.44C635.446 332.64 633.713 331.653 632.113 330.48C630.566 329.307 629.313 327.787 628.353 325.92C627.393 324.053 626.913 321.68 626.913 318.8C626.913 315.493 627.713 312.693 629.313 310.4C630.966 308.053 633.179 306.267 635.953 305.04C638.726 303.813 641.819 303.2 645.233 303.2C648.913 303.2 652.193 303.92 655.073 305.36C658.006 306.8 660.379 308.64 662.193 310.88L655.953 317.12C654.353 315.307 652.673 313.973 650.913 313.12C649.206 312.213 647.233 311.76 644.993 311.76C642.219 311.76 640.033 312.32 638.433 313.44C636.886 314.56 636.113 316.133 636.113 318.16C636.113 319.867 636.593 321.253 637.553 322.32C638.513 323.333 639.766 324.213 641.312 324.96C642.913 325.653 644.646 326.32 646.513 326.96C648.433 327.6 650.326 328.32 652.193 329.12C654.113 329.92 655.846 330.96 657.393 332.24C658.993 333.467 660.273 335.067 661.233 337.04C662.193 339.013 662.673 341.493 662.673 344.48C662.673 349.493 660.886 353.467 657.313 356.4C653.793 359.333 649.019 360.8 642.993 360.8Z" fill="#FB5711"/>
<rect x="251" y="268" width="12" height="12" fill="black"/>
<rect x="731" y="268" width="12" height="12" fill="black"/>
<rect x="251" y="380" width="12" height="12" fill="black"/>
<rect x="731" y="380" width="12" height="12" fill="black"/>
<path d="M6.08 494V438H15.28V494H6.08ZM12.4 470V461.6H40.88V470H12.4ZM12.4 446.4V438H42.24V446.4H12.4ZM42.3888 494L65.4288 438H71.8288L94.7088 494H84.7888L66.8688 448.64H70.2288L52.1488 494H42.3888ZM53.7488 483.2V475.2H83.4288V483.2H53.7488ZM116.368 494.8C111.941 494.8 108.181 494 105.088 492.4C101.994 490.8 99.2208 488.453 96.7675 485.36L103.008 479.12C104.554 481.36 106.394 483.12 108.528 484.4C110.661 485.627 113.381 486.24 116.688 486.24C119.781 486.24 122.234 485.6 124.048 484.32C125.914 483.04 126.848 481.28 126.848 479.04C126.848 477.173 126.368 475.653 125.408 474.48C124.448 473.307 123.168 472.347 121.568 471.6C120.021 470.8 118.288 470.107 116.368 469.52C114.501 468.88 112.608 468.187 110.688 467.44C108.821 466.64 107.088 465.653 105.488 464.48C103.941 463.307 102.688 461.787 101.728 459.92C100.768 458.053 100.288 455.68 100.288 452.8C100.288 449.493 101.088 446.693 102.688 444.4C104.341 442.053 106.554 440.267 109.328 439.04C112.101 437.813 115.194 437.2 118.608 437.2C122.288 437.2 125.568 437.92 128.448 439.36C131.381 440.8 133.754 442.64 135.568 444.88L129.328 451.12C127.728 449.307 126.048 447.973 124.288 447.12C122.581 446.213 120.608 445.76 118.368 445.76C115.594 445.76 113.408 446.32 111.808 447.44C110.261 448.56 109.488 450.133 109.488 452.16C109.488 453.867 109.968 455.253 110.928 456.32C111.888 457.333 113.141 458.213 114.688 458.96C116.288 459.653 118.021 460.32 119.888 460.96C121.808 461.6 123.701 462.32 125.568 463.12C127.488 463.92 129.221 464.96 130.768 466.24C132.368 467.467 133.648 469.067 134.608 471.04C135.568 473.013 136.048 475.493 136.048 478.48C136.048 483.493 134.261 487.467 130.688 490.4C127.168 493.333 122.394 494.8 116.368 494.8ZM156.879 494V439.6H166.079V494H156.879ZM138.639 446.4V438H184.319V446.4H138.639ZM192.33 494V438H201.53V494H192.33ZM198.65 494V485.6H230.01V494H198.65ZM198.65 469.44V461.36H227.29V469.44H198.65ZM198.65 446.4V438H229.61V446.4H198.65ZM245.838 470.24V462.64H259.998C262.824 462.64 265.011 461.92 266.558 460.48C268.158 458.987 268.958 456.933 268.958 454.32C268.958 451.973 268.184 450 266.638 448.4C265.091 446.8 262.904 446 260.078 446H245.838V438H260.478C263.998 438 267.091 438.72 269.758 440.16C272.424 441.547 274.478 443.467 275.918 445.92C277.411 448.32 278.158 451.067 278.158 454.16C278.158 457.413 277.411 460.24 275.918 462.64C274.478 465.04 272.424 466.907 269.758 468.24C267.091 469.573 263.998 470.24 260.478 470.24H245.838ZM239.518 494V438H248.718V494H239.518ZM270.238 494L250.638 469.68L259.198 466.56L281.838 494H270.238Z" fill="black"/>
</svg>
