<svg width="552" height="124" viewBox="0 0 552 124" fill="none" xmlns="http://www.w3.org/2000/svg">
<rect x="6.5" y="6.5" width="540" height="111" stroke="black"/>
<path d="M86.1364 61.9091C86.1364 68.0455 85.0284 73.3485 82.8125 77.8182C80.5966 82.2879 77.5568 85.7348 73.6932 88.1591C69.8295 90.5833 65.4167 91.7955 60.4545 91.7955C55.4924 91.7955 51.0795 90.5833 47.2159 88.1591C43.3523 85.7348 40.3125 82.2879 38.0966 77.8182C35.8807 73.3485 34.7727 68.0455 34.7727 61.9091C34.7727 55.7727 35.8807 50.4697 38.0966 46C40.3125 41.5303 43.3523 38.0833 47.2159 35.6591C51.0795 33.2348 55.4924 32.0227 60.4545 32.0227C65.4167 32.0227 69.8295 33.2348 73.6932 35.6591C77.5568 38.0833 80.5966 41.5303 82.8125 46C85.0284 50.4697 86.1364 55.7727 86.1364 61.9091ZM79.3182 61.9091C79.3182 56.8712 78.4754 52.6193 76.7898 49.1534C75.1231 45.6875 72.8598 43.0644 70 41.2841C67.1591 39.5038 63.9773 38.6136 60.4545 38.6136C56.9318 38.6136 53.7405 39.5038 50.8807 41.2841C48.0398 43.0644 45.7765 45.6875 44.0909 49.1534C42.4242 52.6193 41.5909 56.8712 41.5909 61.9091C41.5909 66.947 42.4242 71.1989 44.0909 74.6648C45.7765 78.1307 48.0398 80.7538 50.8807 82.5341C53.7405 84.3144 56.9318 85.2045 60.4545 85.2045C63.9773 85.2045 67.1591 84.3144 70 82.5341C72.8598 80.7538 75.1231 78.1307 76.7898 74.6648C78.4754 71.1989 79.3182 66.947 79.3182 61.9091ZM124.574 73.1591V47.3636H131.278V91H124.574V83.6136H124.119C123.097 85.8295 121.506 87.714 119.347 89.267C117.188 90.8011 114.46 91.5682 111.165 91.5682C108.438 91.5682 106.013 90.9716 103.892 89.7784C101.771 88.5663 100.104 86.7481 98.892 84.3239C97.6799 81.8807 97.0739 78.803 97.0739 75.0909V47.3636H103.778V74.6364C103.778 77.8182 104.669 80.3561 106.449 82.25C108.248 84.1439 110.54 85.0909 113.324 85.0909C114.991 85.0909 116.686 84.6648 118.409 83.8125C120.152 82.9602 121.61 81.6534 122.784 79.892C123.977 78.1307 124.574 75.8864 124.574 73.1591ZM143.558 91V47.3636H150.036V53.9545H150.49C151.286 51.7955 152.725 50.0436 154.808 48.6989C156.892 47.3542 159.24 46.6818 161.854 46.6818C162.346 46.6818 162.962 46.6913 163.7 46.7102C164.439 46.7292 164.998 46.7576 165.376 46.7955V53.6136C165.149 53.5568 164.628 53.4716 163.814 53.358C163.018 53.2254 162.176 53.1591 161.286 53.1591C159.164 53.1591 157.27 53.6042 155.604 54.4943C153.956 55.3655 152.649 56.5777 151.683 58.1307C150.736 59.6648 150.263 61.4167 150.263 63.3864V91H143.558Z" fill="black"/>
<path d="M228.551 47.3636C228.21 44.4848 226.828 42.25 224.403 40.6591C221.979 39.0682 219.006 38.2727 215.483 38.2727C212.907 38.2727 210.653 38.6894 208.722 39.5227C206.809 40.3561 205.313 41.5019 204.233 42.9602C203.172 44.4186 202.642 46.0758 202.642 47.9318C202.642 49.4848 203.011 50.8201 203.75 51.9375C204.508 53.036 205.473 53.9545 206.648 54.6932C207.822 55.4129 209.053 56.0095 210.341 56.483C211.629 56.9375 212.812 57.3068 213.892 57.5909L219.801 59.1818C221.316 59.5795 223.002 60.1288 224.858 60.8295C226.733 61.5303 228.523 62.4867 230.227 63.6989C231.951 64.892 233.371 66.4261 234.489 68.3011C235.606 70.1761 236.165 72.4773 236.165 75.2045C236.165 78.3485 235.341 81.1894 233.693 83.7273C232.064 86.2652 229.678 88.2822 226.534 89.7784C223.409 91.2746 219.612 92.0227 215.142 92.0227C210.975 92.0227 207.367 91.3504 204.318 90.0057C201.288 88.661 198.902 86.786 197.159 84.3807C195.436 81.9754 194.46 79.1818 194.233 76H201.506C201.695 78.197 202.434 80.0152 203.722 81.4545C205.028 82.875 206.676 83.9356 208.665 84.6364C210.672 85.3182 212.831 85.6591 215.142 85.6591C217.831 85.6591 220.246 85.2235 222.386 84.3523C224.527 83.4621 226.222 82.2311 227.472 80.6591C228.722 79.0682 229.347 77.2121 229.347 75.0909C229.347 73.1591 228.807 71.5871 227.727 70.375C226.648 69.1629 225.227 68.178 223.466 67.4205C221.705 66.6629 219.801 66 217.756 65.4318L210.597 63.3864C206.051 62.0795 202.453 60.214 199.801 57.7898C197.15 55.3655 195.824 52.1932 195.824 48.2727C195.824 45.0151 196.705 42.1742 198.466 39.75C200.246 37.3068 202.633 35.4129 205.625 34.0682C208.636 32.7045 211.998 32.0227 215.71 32.0227C219.46 32.0227 222.794 32.6951 225.71 34.0398C228.627 35.3655 230.938 37.1837 232.642 39.4943C234.366 41.8049 235.275 44.428 235.369 47.3636H228.551ZM265.135 91.9091C260.93 91.9091 257.304 90.9811 254.254 89.125C251.224 87.25 248.885 84.6364 247.237 81.2841C245.608 77.9129 244.794 73.9924 244.794 69.5227C244.794 65.053 245.608 61.1136 247.237 57.7045C248.885 54.2765 251.177 51.6061 254.112 49.6932C257.067 47.7614 260.514 46.7955 264.453 46.7955C266.726 46.7955 268.97 47.1742 271.186 47.9318C273.402 48.6894 275.419 49.9205 277.237 51.625C279.055 53.3106 280.504 55.5455 281.584 58.3295C282.663 61.1136 283.203 64.5417 283.203 68.6136V71.4545H249.567V65.6591H276.385C276.385 63.197 275.893 61 274.908 59.0682C273.942 57.1364 272.559 55.6117 270.76 54.4943C268.98 53.3769 266.877 52.8182 264.453 52.8182C261.783 52.8182 259.472 53.4811 257.521 54.8068C255.589 56.1136 254.103 57.8182 253.061 59.9205C252.019 62.0227 251.499 64.2765 251.499 66.6818V70.5455C251.499 73.8409 252.067 76.6345 253.203 78.9261C254.358 81.1989 255.959 82.9318 258.004 84.125C260.05 85.2992 262.427 85.8864 265.135 85.8864C266.896 85.8864 268.487 85.6402 269.908 85.1477C271.347 84.6364 272.588 83.8788 273.629 82.875C274.671 81.8523 275.476 80.5833 276.044 79.0682L282.521 80.8864C281.839 83.0833 280.694 85.0152 279.084 86.6818C277.474 88.3295 275.485 89.6174 273.118 90.5455C270.75 91.4545 268.089 91.9091 265.135 91.9091ZM293.402 91V47.3636H299.879V53.9545H300.334C301.129 51.7955 302.569 50.0436 304.652 48.6989C306.735 47.3542 309.084 46.6818 311.697 46.6818C312.19 46.6818 312.805 46.6913 313.544 46.7102C314.283 46.7292 314.841 46.7576 315.22 46.7955V53.6136C314.993 53.5568 314.472 53.4716 313.658 53.358C312.862 53.2254 312.019 53.1591 311.129 53.1591C309.008 53.1591 307.114 53.6042 305.447 54.4943C303.8 55.3655 302.493 56.5777 301.527 58.1307C300.58 59.6648 300.107 61.4167 300.107 63.3864V91H293.402ZM360.178 47.3636L344.041 91H337.223L321.087 47.3636H328.359L340.405 82.1364H340.859L352.905 47.3636H360.178ZM369.027 91V47.3636H375.732V91H369.027ZM372.436 40.0909C371.129 40.0909 370.002 39.6458 369.055 38.7557C368.127 37.8655 367.663 36.7955 367.663 35.5455C367.663 34.2955 368.127 33.2254 369.055 32.3352C370.002 31.4451 371.129 31 372.436 31C373.743 31 374.86 31.4451 375.788 32.3352C376.735 33.2254 377.209 34.2955 377.209 35.5455C377.209 36.7955 376.735 37.8655 375.788 38.7557C374.86 39.6458 373.743 40.0909 372.436 40.0909ZM405.739 91.9091C401.648 91.9091 398.125 90.9432 395.17 89.0114C392.216 87.0795 389.943 84.4186 388.352 81.0284C386.761 77.6383 385.966 73.7652 385.966 69.4091C385.966 64.9773 386.78 61.0663 388.409 57.6761C390.057 54.267 392.348 51.6061 395.284 49.6932C398.239 47.7614 401.686 46.7955 405.625 46.7955C408.693 46.7955 411.458 47.3636 413.92 48.5C416.383 49.6364 418.4 51.2273 419.972 53.2727C421.544 55.3182 422.519 57.7045 422.898 60.4318H416.193C415.682 58.4432 414.545 56.6818 412.784 55.1477C411.042 53.5947 408.693 52.8182 405.739 52.8182C403.125 52.8182 400.833 53.5 398.864 54.8636C396.913 56.2083 395.388 58.1117 394.29 60.5739C393.21 63.017 392.67 65.8864 392.67 69.1818C392.67 72.553 393.201 75.4886 394.261 77.9886C395.341 80.4886 396.856 82.4299 398.807 83.8125C400.777 85.1951 403.087 85.8864 405.739 85.8864C407.481 85.8864 409.062 85.5833 410.483 84.9773C411.903 84.3712 413.106 83.5 414.091 82.3636C415.076 81.2273 415.777 79.8636 416.193 78.2727H422.898C422.519 80.8485 421.581 83.1686 420.085 85.233C418.608 87.2784 416.648 88.9072 414.205 90.1193C411.78 91.3125 408.958 91.9091 405.739 91.9091ZM450.994 91.9091C446.79 91.9091 443.163 90.9811 440.114 89.125C437.083 87.25 434.744 84.6364 433.097 81.2841C431.468 77.9129 430.653 73.9924 430.653 69.5227C430.653 65.053 431.468 61.1136 433.097 57.7045C434.744 54.2765 437.036 51.6061 439.972 49.6932C442.926 47.7614 446.373 46.7955 450.312 46.7955C452.585 46.7955 454.83 47.1742 457.045 47.9318C459.261 48.6894 461.278 49.9205 463.097 51.625C464.915 53.3106 466.364 55.5455 467.443 58.3295C468.523 61.1136 469.062 64.5417 469.062 68.6136V71.4545H435.426V65.6591H462.244C462.244 63.197 461.752 61 460.767 59.0682C459.801 57.1364 458.419 55.6117 456.619 54.4943C454.839 53.3769 452.737 52.8182 450.312 52.8182C447.642 52.8182 445.331 53.4811 443.381 54.8068C441.449 56.1136 439.962 57.8182 438.92 59.9205C437.879 62.0227 437.358 64.2765 437.358 66.6818V70.5455C437.358 73.8409 437.926 76.6345 439.062 78.9261C440.218 81.1989 441.818 82.9318 443.864 84.125C445.909 85.2992 448.286 85.8864 450.994 85.8864C452.756 85.8864 454.347 85.6402 455.767 85.1477C457.206 84.6364 458.447 83.8788 459.489 82.875C460.53 81.8523 461.335 80.5833 461.903 79.0682L468.381 80.8864C467.699 83.0833 466.553 85.0152 464.943 86.6818C463.333 88.3295 461.345 89.6174 458.977 90.5455C456.61 91.4545 453.949 91.9091 450.994 91.9091ZM510.17 57.1364L504.148 58.8409C503.769 57.8371 503.21 56.8617 502.472 55.9148C501.752 54.9489 500.767 54.1534 499.517 53.5284C498.267 52.9034 496.667 52.5909 494.716 52.5909C492.045 52.5909 489.82 53.2064 488.04 54.4375C486.278 55.6496 485.398 57.1932 485.398 59.0682C485.398 60.7348 486.004 62.0511 487.216 63.017C488.428 63.983 490.322 64.7879 492.898 65.4318L499.375 67.0227C503.277 67.9697 506.184 69.4186 508.097 71.3693C510.009 73.3011 510.966 75.7917 510.966 78.8409C510.966 81.3409 510.246 83.5758 508.807 85.5455C507.386 87.5152 505.398 89.0682 502.841 90.2045C500.284 91.3409 497.311 91.9091 493.92 91.9091C489.47 91.9091 485.786 90.9432 482.869 89.0114C479.953 87.0795 478.106 84.2576 477.33 80.5455L483.693 78.9545C484.299 81.303 485.445 83.0644 487.131 84.2386C488.835 85.4129 491.061 86 493.807 86C496.932 86 499.413 85.3371 501.25 84.0114C503.106 82.6667 504.034 81.0568 504.034 79.1818C504.034 77.6667 503.504 76.3977 502.443 75.375C501.383 74.3333 499.754 73.5568 497.557 73.0455L490.284 71.3409C486.288 70.3939 483.352 68.9261 481.477 66.9375C479.621 64.9299 478.693 62.4205 478.693 59.4091C478.693 56.947 479.384 54.7689 480.767 52.875C482.169 50.9811 484.072 49.4943 486.477 48.4148C488.902 47.3352 491.648 46.7955 494.716 46.7955C499.034 46.7955 502.424 47.7424 504.886 49.6364C507.367 51.5303 509.129 54.0303 510.17 57.1364Z" fill="#FB5711"/>
<rect width="12" height="12" fill="black"/>
<rect y="112" width="12" height="12" fill="black"/>
<rect x="540" y="112" width="12" height="12" fill="black"/>
<rect x="540" width="12" height="12" fill="black"/>
</svg>
