<svg width="327" height="124" viewBox="0 0 327 124" fill="none" xmlns="http://www.w3.org/2000/svg">
<rect x="6.5" y="6.5" width="314" height="111" stroke="black"/>
<path d="M37.0455 91V32.8182H56.7045C61.2689 32.8182 65 33.642 67.8977 35.2898C70.8144 36.9186 72.9735 39.125 74.375 41.9091C75.7765 44.6932 76.4773 47.7992 76.4773 51.2273C76.4773 54.6553 75.7765 57.7708 74.375 60.5739C72.9924 63.3769 70.8523 65.6117 67.9545 67.2784C65.0568 68.9261 61.3447 69.75 56.8182 69.75H42.7273V63.5H56.5909C59.7159 63.5 62.2254 62.9602 64.1193 61.8807C66.0133 60.8011 67.3864 59.3428 68.2386 57.5057C69.1098 55.6496 69.5455 53.5568 69.5455 51.2273C69.5455 48.8977 69.1098 46.8144 68.2386 44.9773C67.3864 43.1402 66.0038 41.7008 64.0909 40.6591C62.178 39.5985 59.6402 39.0682 56.4773 39.0682H44.0909V91H37.0455ZM86.9176 91V47.3636H93.3949V53.9545H93.8494C94.6449 51.7955 96.0843 50.0436 98.1676 48.6989C100.251 47.3542 102.599 46.6818 105.213 46.6818C105.705 46.6818 106.321 46.6913 107.06 46.7102C107.798 46.7292 108.357 46.7576 108.736 46.7955V53.6136C108.509 53.5568 107.988 53.4716 107.173 53.358C106.378 53.2254 105.535 53.1591 104.645 53.1591C102.524 53.1591 100.63 53.6042 98.9631 54.4943C97.3153 55.3655 96.0085 56.5777 95.0426 58.1307C94.0956 59.6648 93.6222 61.4167 93.6222 63.3864V91H86.9176ZM116.683 91V47.3636H123.388V91H116.683ZM120.092 40.0909C118.786 40.0909 117.659 39.6458 116.712 38.7557C115.784 37.8655 115.32 36.7955 115.32 35.5455C115.32 34.2955 115.784 33.2254 116.712 32.3352C117.659 31.4451 118.786 31 120.092 31C121.399 31 122.517 31.4451 123.445 32.3352C124.392 33.2254 124.865 34.2955 124.865 35.5455C124.865 36.7955 124.392 37.8655 123.445 38.7557C122.517 39.6458 121.399 40.0909 120.092 40.0909ZM153.395 91.9091C149.304 91.9091 145.781 90.9432 142.827 89.0114C139.872 87.0795 137.599 84.4186 136.009 81.0284C134.418 77.6383 133.622 73.7652 133.622 69.4091C133.622 64.9773 134.437 61.0663 136.065 57.6761C137.713 54.267 140.005 51.6061 142.94 49.6932C145.895 47.7614 149.342 46.7955 153.281 46.7955C156.349 46.7955 159.115 47.3636 161.577 48.5C164.039 49.6364 166.056 51.2273 167.628 53.2727C169.2 55.3182 170.175 57.7045 170.554 60.4318H163.849C163.338 58.4432 162.202 56.6818 160.44 55.1477C158.698 53.5947 156.349 52.8182 153.395 52.8182C150.781 52.8182 148.49 53.5 146.52 54.8636C144.569 56.2083 143.045 58.1117 141.946 60.5739C140.866 63.017 140.327 65.8864 140.327 69.1818C140.327 72.553 140.857 75.4886 141.918 77.9886C142.997 80.4886 144.512 82.4299 146.463 83.8125C148.433 85.1951 150.743 85.8864 153.395 85.8864C155.137 85.8864 156.719 85.5833 158.139 84.9773C159.56 84.3712 160.762 83.5 161.747 82.3636C162.732 81.2273 163.433 79.8636 163.849 78.2727H170.554C170.175 80.8485 169.238 83.1686 167.741 85.233C166.264 87.2784 164.304 88.9072 161.861 90.1193C159.437 91.3125 156.615 91.9091 153.395 91.9091ZM180.355 91V47.3636H187.06V91H180.355ZM183.764 40.0909C182.457 40.0909 181.33 39.6458 180.384 38.7557C179.455 37.8655 178.991 36.7955 178.991 35.5455C178.991 34.2955 179.455 33.2254 180.384 32.3352C181.33 31.4451 182.457 31 183.764 31C185.071 31 186.188 31.4451 187.116 32.3352C188.063 33.2254 188.537 34.2955 188.537 35.5455C188.537 36.7955 188.063 37.8655 187.116 38.7557C186.188 39.6458 185.071 40.0909 183.764 40.0909ZM206.044 64.75V91H199.339V47.3636H205.817V54.1818H206.385C207.408 51.9659 208.961 50.1856 211.044 48.8409C213.127 47.4773 215.817 46.7955 219.112 46.7955C222.067 46.7955 224.652 47.4015 226.868 48.6136C229.084 49.8068 230.807 51.625 232.038 54.0682C233.269 56.4924 233.885 59.5606 233.885 63.2727V91H227.18V63.7273C227.18 60.2992 226.29 57.6288 224.51 55.7159C222.73 53.7841 220.286 52.8182 217.18 52.8182C215.04 52.8182 213.127 53.2822 211.442 54.2102C209.775 55.1383 208.459 56.4924 207.493 58.2727C206.527 60.053 206.044 62.2121 206.044 64.75ZM263.75 108.273C260.511 108.273 257.727 107.856 255.398 107.023C253.068 106.208 251.127 105.129 249.574 103.784C248.04 102.458 246.818 101.038 245.909 99.5227L251.25 95.7727C251.856 96.5682 252.623 97.4773 253.551 98.5C254.479 99.5417 255.748 100.441 257.358 101.199C258.987 101.975 261.117 102.364 263.75 102.364C267.273 102.364 270.18 101.511 272.472 99.8068C274.763 98.1023 275.909 95.4318 275.909 91.7955V82.9318H275.341C274.848 83.7273 274.148 84.7121 273.239 85.8864C272.348 87.0417 271.061 88.0739 269.375 88.983C267.708 89.8731 265.455 90.3182 262.614 90.3182C259.091 90.3182 255.928 89.4848 253.125 87.8182C250.341 86.1515 248.134 83.7273 246.506 80.5455C244.896 77.3636 244.091 73.5 244.091 68.9545C244.091 64.4848 244.877 60.5928 246.449 57.2784C248.021 53.9451 250.208 51.3693 253.011 49.5511C255.814 47.714 259.053 46.7955 262.727 46.7955C265.568 46.7955 267.822 47.2689 269.489 48.2159C271.174 49.1439 272.462 50.2045 273.352 51.3977C274.261 52.572 274.962 53.5379 275.455 54.2955H276.136V47.3636H282.614V92.25C282.614 96 281.761 99.0492 280.057 101.398C278.371 103.765 276.098 105.498 273.239 106.597C270.398 107.714 267.235 108.273 263.75 108.273ZM263.523 84.2955C266.212 84.2955 268.485 83.6799 270.341 82.4489C272.197 81.2178 273.608 79.447 274.574 77.1364C275.54 74.8258 276.023 72.0606 276.023 68.8409C276.023 65.697 275.549 62.9223 274.602 60.517C273.655 58.1117 272.254 56.2273 270.398 54.8636C268.542 53.5 266.25 52.8182 263.523 52.8182C260.682 52.8182 258.314 53.5379 256.42 54.9773C254.545 56.4167 253.134 58.3485 252.188 60.7727C251.259 63.197 250.795 65.8864 250.795 68.8409C250.795 71.8712 251.269 74.5511 252.216 76.8807C253.182 79.1913 254.602 81.0095 256.477 82.3352C258.371 83.642 260.72 84.2955 263.523 84.2955Z" fill="#FB5711"/>
<rect width="12" height="12" fill="black"/>
<rect y="112" width="12" height="12" fill="black"/>
<rect x="315" y="112" width="12" height="12" fill="black"/>
<rect x="315" width="12" height="12" fill="black"/>
</svg>
