<svg width="652" height="124" viewBox="0 0 652 124" fill="none" xmlns="http://www.w3.org/2000/svg">
<rect x="7" y="6.5" width="639" height="111" stroke="black"/>
<path d="M58.3409 91L67.8864 32.8182H73.5682L64.0227 91H58.3409ZM31.8636 74.8636L32.7727 69.1818H76.1818L75.2727 74.8636H31.8636ZM37.8864 91L47.4318 32.8182H53.1136L43.5682 91H37.8864ZM35.2727 54.6364L36.1818 48.9545H79.5909L78.6818 54.6364H35.2727ZM105.969 91H88.0142V32.8182H106.764C112.408 32.8182 117.238 33.983 121.253 36.3125C125.268 38.6231 128.346 41.947 130.486 46.2841C132.626 50.6023 133.696 55.7727 133.696 61.7955C133.696 67.8561 132.616 73.0739 130.457 77.4489C128.298 81.8049 125.154 85.1572 121.026 87.5057C116.897 89.8352 111.878 91 105.969 91ZM95.0597 84.75H105.514C110.325 84.75 114.312 83.822 117.474 81.9659C120.637 80.1098 122.995 77.4678 124.548 74.0398C126.101 70.6117 126.878 66.5303 126.878 61.7955C126.878 57.0985 126.111 53.0549 124.577 49.6648C123.043 46.2557 120.751 43.642 117.702 41.8239C114.652 39.9867 110.855 39.0682 106.31 39.0682H95.0597V84.75ZM144.605 91V47.3636H151.082V53.9545H151.537C152.332 51.7955 153.772 50.0436 155.855 48.6989C157.938 47.3542 160.287 46.6818 162.901 46.6818C163.393 46.6818 164.009 46.6913 164.747 46.7102C165.486 46.7292 166.045 46.7576 166.423 46.7955V53.6136C166.196 53.5568 165.675 53.4716 164.861 53.358C164.065 53.2254 163.223 53.1591 162.332 53.1591C160.211 53.1591 158.317 53.6042 156.651 54.4943C155.003 55.3655 153.696 56.5777 152.73 58.1307C151.783 59.6648 151.31 61.4167 151.31 63.3864V91H144.605ZM190.77 91.9091C186.83 91.9091 183.374 90.9716 180.401 89.0966C177.446 87.2216 175.135 84.5985 173.469 81.2273C171.821 77.8561 170.997 73.9167 170.997 69.4091C170.997 64.8636 171.821 60.8958 173.469 57.5057C175.135 54.1155 177.446 51.483 180.401 49.608C183.374 47.733 186.83 46.7955 190.77 46.7955C194.709 46.7955 198.156 47.733 201.111 49.608C204.084 51.483 206.395 54.1155 208.043 57.5057C209.709 60.8958 210.543 64.8636 210.543 69.4091C210.543 73.9167 209.709 77.8561 208.043 81.2273C206.395 84.5985 204.084 87.2216 201.111 89.0966C198.156 90.9716 194.709 91.9091 190.77 91.9091ZM190.77 85.8864C193.762 85.8864 196.224 85.1193 198.156 83.5852C200.088 82.0511 201.518 80.0341 202.446 77.5341C203.374 75.0341 203.838 72.3258 203.838 69.4091C203.838 66.4924 203.374 63.7746 202.446 61.2557C201.518 58.7367 200.088 56.7008 198.156 55.1477C196.224 53.5947 193.762 52.8182 190.77 52.8182C187.777 52.8182 185.315 53.5947 183.384 55.1477C181.452 56.7008 180.022 58.7367 179.094 61.2557C178.166 63.7746 177.702 66.4924 177.702 69.4091C177.702 72.3258 178.166 75.0341 179.094 77.5341C180.022 80.0341 181.452 82.0511 183.384 83.5852C185.315 85.1193 187.777 85.8864 190.77 85.8864ZM220.777 107.364V47.3636H227.254V54.2955H228.05C228.542 53.5379 229.224 52.572 230.095 51.3977C230.985 50.2045 232.254 49.1439 233.902 48.2159C235.569 47.2689 237.822 46.7955 240.663 46.7955C244.338 46.7955 247.576 47.714 250.379 49.5511C253.182 51.3883 255.37 53.9924 256.942 57.3636C258.514 60.7348 259.3 64.7121 259.3 69.2955C259.3 73.9167 258.514 77.9223 256.942 81.3125C255.37 84.6837 253.192 87.2973 250.408 89.1534C247.624 90.9905 244.413 91.9091 240.777 91.9091C237.974 91.9091 235.73 91.4451 234.044 90.517C232.358 89.5701 231.061 88.5 230.152 87.3068C229.243 86.0947 228.542 85.0909 228.05 84.2955H227.482V107.364H220.777ZM227.368 69.1818C227.368 72.4773 227.851 75.3845 228.817 77.9034C229.783 80.4034 231.194 82.3636 233.05 83.7841C234.906 85.1856 237.179 85.8864 239.868 85.8864C242.671 85.8864 245.01 85.1477 246.885 83.6705C248.779 82.1742 250.199 80.1667 251.146 77.6477C252.112 75.1098 252.595 72.2879 252.595 69.1818C252.595 66.1136 252.122 63.3485 251.175 60.8864C250.247 58.4053 248.836 56.4451 246.942 55.0057C245.067 53.5473 242.709 52.8182 239.868 52.8182C237.141 52.8182 234.849 53.5095 232.993 54.892C231.137 56.2557 229.735 58.1686 228.788 60.6307C227.841 63.0739 227.368 65.9242 227.368 69.1818ZM288.504 47.3636V53.0455H265.891V47.3636H288.504ZM272.482 36.9091H279.186V78.5C279.186 80.3939 279.461 81.8144 280.01 82.7614C280.578 83.6894 281.298 84.3144 282.169 84.6364C283.059 84.9394 283.997 85.0909 284.982 85.0909C285.72 85.0909 286.326 85.053 286.8 84.9773C287.273 84.8826 287.652 84.8068 287.936 84.75L289.3 90.7727C288.845 90.9432 288.211 91.1136 287.396 91.2841C286.582 91.4735 285.55 91.5682 284.3 91.5682C282.406 91.5682 280.55 91.161 278.732 90.3466C276.932 89.5322 275.436 88.2917 274.243 86.625C273.069 84.9583 272.482 82.8561 272.482 80.3182V36.9091ZM306.232 64.75V91H299.527V32.8182H306.232V54.1818H306.8C307.822 51.928 309.357 50.1383 311.402 48.8125C313.466 47.4678 316.213 46.7955 319.641 46.7955C322.614 46.7955 325.218 47.392 327.453 48.5852C329.688 49.7595 331.421 51.5682 332.652 54.0114C333.902 56.4356 334.527 59.5227 334.527 63.2727V91H327.822V63.7273C327.822 60.2614 326.923 57.5814 325.124 55.6875C323.343 53.7746 320.872 52.8182 317.709 52.8182C315.512 52.8182 313.542 53.2822 311.8 54.2102C310.076 55.1383 308.713 56.4924 307.709 58.2727C306.724 60.053 306.232 62.2121 306.232 64.75ZM365.088 91.9091C360.884 91.9091 357.257 90.9811 354.207 89.125C351.177 87.25 348.838 84.6364 347.19 81.2841C345.562 77.9129 344.747 73.9924 344.747 69.5227C344.747 65.053 345.562 61.1136 347.19 57.7045C348.838 54.2765 351.13 51.6061 354.065 49.6932C357.02 47.7614 360.467 46.7955 364.406 46.7955C366.679 46.7955 368.923 47.1742 371.139 47.9318C373.355 48.6894 375.372 49.9205 377.19 51.625C379.009 53.3106 380.457 55.5455 381.537 58.3295C382.616 61.1136 383.156 64.5417 383.156 68.6136V71.4545H349.52V65.6591H376.338C376.338 63.197 375.846 61 374.861 59.0682C373.895 57.1364 372.512 55.6117 370.713 54.4943C368.933 53.3769 366.83 52.8182 364.406 52.8182C361.736 52.8182 359.425 53.4811 357.474 54.8068C355.543 56.1136 354.056 57.8182 353.014 59.9205C351.973 62.0227 351.452 64.2765 351.452 66.6818V70.5455C351.452 73.8409 352.02 76.6345 353.156 78.9261C354.312 81.1989 355.912 82.9318 357.957 84.125C360.003 85.2992 362.38 85.8864 365.088 85.8864C366.849 85.8864 368.44 85.6402 369.861 85.1477C371.3 84.6364 372.541 83.8788 373.582 82.875C374.624 81.8523 375.429 80.5833 375.997 79.0682L382.474 80.8864C381.793 83.0833 380.647 85.0152 379.037 86.6818C377.427 88.3295 375.438 89.6174 373.071 90.5455C370.704 91.4545 368.043 91.9091 365.088 91.9091Z" fill="black"/>
<path d="M411.082 91.9091C406.991 91.9091 403.469 90.9432 400.514 89.0114C397.56 87.0795 395.287 84.4186 393.696 81.0284C392.105 77.6383 391.31 73.7652 391.31 69.4091C391.31 64.9773 392.124 61.0663 393.753 57.6761C395.401 54.267 397.692 51.6061 400.628 49.6932C403.582 47.7614 407.029 46.7955 410.969 46.7955C414.037 46.7955 416.802 47.3636 419.264 48.5C421.726 49.6364 423.743 51.2273 425.315 53.2727C426.887 55.3182 427.863 57.7045 428.241 60.4318H421.537C421.026 58.4432 419.889 56.6818 418.128 55.1477C416.385 53.5947 414.037 52.8182 411.082 52.8182C408.469 52.8182 406.177 53.5 404.207 54.8636C402.257 56.2083 400.732 58.1117 399.634 60.5739C398.554 63.017 398.014 65.8864 398.014 69.1818C398.014 72.553 398.545 75.4886 399.605 77.9886C400.685 80.4886 402.2 82.4299 404.151 83.8125C406.12 85.1951 408.431 85.8864 411.082 85.8864C412.825 85.8864 414.406 85.5833 415.827 84.9773C417.247 84.3712 418.45 83.5 419.435 82.3636C420.42 81.2273 421.12 79.8636 421.537 78.2727H428.241C427.863 80.8485 426.925 83.1686 425.429 85.233C423.952 87.2784 421.991 88.9072 419.548 90.1193C417.124 91.3125 414.302 91.9091 411.082 91.9091ZM444.747 64.75V91H438.043V32.8182H444.747V54.1818H445.315C446.338 51.928 447.872 50.1383 449.918 48.8125C451.982 47.4678 454.728 46.7955 458.156 46.7955C461.13 46.7955 463.734 47.392 465.969 48.5852C468.204 49.7595 469.937 51.5682 471.168 54.0114C472.418 56.4356 473.043 59.5227 473.043 63.2727V91H466.338V63.7273C466.338 60.2614 465.438 57.5814 463.639 55.6875C461.859 53.7746 459.387 52.8182 456.224 52.8182C454.027 52.8182 452.058 53.2822 450.315 54.2102C448.592 55.1383 447.228 56.4924 446.224 58.2727C445.24 60.053 444.747 62.2121 444.747 64.75ZM498.149 92.0227C495.384 92.0227 492.875 91.5019 490.621 90.4602C488.367 89.3996 486.577 87.875 485.251 85.8864C483.926 83.8788 483.263 81.4545 483.263 78.6136C483.263 76.1136 483.755 74.0871 484.74 72.5341C485.725 70.9621 487.041 69.7311 488.689 68.8409C490.337 67.9508 492.155 67.2879 494.143 66.8523C496.151 66.3977 498.168 66.0379 500.195 65.7727C502.846 65.4318 504.996 65.1761 506.643 65.0057C508.31 64.8163 509.522 64.5038 510.28 64.0682C511.056 63.6326 511.445 62.875 511.445 61.7955V61.5682C511.445 58.7652 510.678 56.5871 509.143 55.0341C507.628 53.4811 505.327 52.7045 502.24 52.7045C499.039 52.7045 496.53 53.4053 494.712 54.8068C492.893 56.2083 491.615 57.7045 490.876 59.2955L484.513 57.0227C485.649 54.3712 487.164 52.3068 489.058 50.8295C490.971 49.3333 493.054 48.2917 495.308 47.7045C497.581 47.0985 499.816 46.7955 502.013 46.7955C503.414 46.7955 505.024 46.9659 506.842 47.3068C508.679 47.6288 510.45 48.3011 512.155 49.3239C513.878 50.3466 515.308 51.8902 516.445 53.9545C517.581 56.0189 518.149 58.7841 518.149 62.25V91H511.445V85.0909H511.104C510.649 86.0379 509.892 87.0511 508.831 88.1307C507.77 89.2102 506.359 90.1288 504.598 90.8864C502.837 91.6439 500.687 92.0227 498.149 92.0227ZM499.172 86C501.823 86 504.058 85.4792 505.876 84.4375C507.714 83.3958 509.096 82.0511 510.024 80.4034C510.971 78.7557 511.445 77.0227 511.445 75.2045V69.0682C511.161 69.4091 510.536 69.7216 509.57 70.0057C508.623 70.2708 507.524 70.5076 506.274 70.7159C505.043 70.9053 503.84 71.0758 502.666 71.2273C501.511 71.3598 500.573 71.4735 499.854 71.5682C498.111 71.7955 496.482 72.1648 494.967 72.6761C493.471 73.1686 492.259 73.9167 491.331 74.9205C490.422 75.9053 489.967 77.25 489.967 78.9545C489.967 81.2841 490.829 83.0455 492.553 84.2386C494.295 85.4129 496.501 86 499.172 86ZM548.114 91.9091C544.174 91.9091 540.718 90.9716 537.744 89.0966C534.79 87.2216 532.479 84.5985 530.812 81.2273C529.165 77.8561 528.341 73.9167 528.341 69.4091C528.341 64.8636 529.165 60.8958 530.812 57.5057C532.479 54.1155 534.79 51.483 537.744 49.608C540.718 47.733 544.174 46.7955 548.114 46.7955C552.053 46.7955 555.5 47.733 558.455 49.608C561.428 51.483 563.739 54.1155 565.386 57.5057C567.053 60.8958 567.886 64.8636 567.886 69.4091C567.886 73.9167 567.053 77.8561 565.386 81.2273C563.739 84.5985 561.428 87.2216 558.455 89.0966C555.5 90.9716 552.053 91.9091 548.114 91.9091ZM548.114 85.8864C551.106 85.8864 553.568 85.1193 555.5 83.5852C557.432 82.0511 558.862 80.0341 559.79 77.5341C560.718 75.0341 561.182 72.3258 561.182 69.4091C561.182 66.4924 560.718 63.7746 559.79 61.2557C558.862 58.7367 557.432 56.7008 555.5 55.1477C553.568 53.5947 551.106 52.8182 548.114 52.8182C545.121 52.8182 542.659 53.5947 540.727 55.1477C538.795 56.7008 537.366 58.7367 536.438 61.2557C535.509 63.7746 535.045 66.4924 535.045 69.4091C535.045 72.3258 535.509 75.0341 536.438 77.5341C537.366 80.0341 538.795 82.0511 540.727 83.5852C542.659 85.1193 545.121 85.8864 548.114 85.8864ZM609.03 57.1364L603.007 58.8409C602.628 57.8371 602.07 56.8617 601.331 55.9148C600.611 54.9489 599.626 54.1534 598.376 53.5284C597.126 52.9034 595.526 52.5909 593.575 52.5909C590.905 52.5909 588.679 53.2064 586.899 54.4375C585.138 55.6496 584.257 57.1932 584.257 59.0682C584.257 60.7348 584.863 62.0511 586.075 63.017C587.287 63.983 589.181 64.7879 591.757 65.4318L598.234 67.0227C602.136 67.9697 605.043 69.4186 606.956 71.3693C608.869 73.3011 609.825 75.7917 609.825 78.8409C609.825 81.3409 609.106 83.5758 607.666 85.5455C606.246 87.5152 604.257 89.0682 601.7 90.2045C599.143 91.3409 596.17 91.9091 592.78 91.9091C588.329 91.9091 584.645 90.9432 581.729 89.0114C578.812 87.0795 576.965 84.2576 576.189 80.5455L582.553 78.9545C583.159 81.303 584.304 83.0644 585.99 84.2386C587.695 85.4129 589.92 86 592.666 86C595.791 86 598.272 85.3371 600.109 84.0114C601.965 82.6667 602.893 81.0568 602.893 79.1818C602.893 77.6667 602.363 76.3977 601.303 75.375C600.242 74.3333 598.613 73.5568 596.416 73.0455L589.143 71.3409C585.147 70.3939 582.212 68.9261 580.337 66.9375C578.481 64.9299 577.553 62.4205 577.553 59.4091C577.553 56.947 578.244 54.7689 579.626 52.875C581.028 50.9811 582.931 49.4943 585.337 48.4148C587.761 47.3352 590.507 46.7955 593.575 46.7955C597.893 46.7955 601.284 47.7424 603.746 49.6364C606.227 51.5303 607.988 54.0303 609.03 57.1364Z" fill="#FB5711"/>
<rect width="12" height="12" fill="black"/>
<rect y="112" width="12" height="12" fill="black"/>
<rect x="640" y="112" width="12" height="12" fill="black"/>
<rect x="640" width="12" height="12" fill="black"/>
</svg>
