<svg width="794" height="124" viewBox="0 0 794 124" fill="none" xmlns="http://www.w3.org/2000/svg">
<rect x="6.5" y="6.5" width="782" height="111" stroke="black"/>
<path d="M37.0455 91V32.8182H44.0909V61.6818H44.7727L70.9091 32.8182H80.1136L55.6818 59.0682L80.1136 91H71.5909L51.3636 63.9545L44.0909 72.1364V91H37.0455ZM89.233 91V32.8182H108.892C113.438 32.8182 117.169 33.5947 120.085 35.1477C123.002 36.6818 125.161 38.7936 126.562 41.483C127.964 44.1723 128.665 47.2311 128.665 50.6591C128.665 54.0871 127.964 57.1269 126.562 59.7784C125.161 62.4299 123.011 64.5133 120.114 66.0284C117.216 67.5246 113.513 68.2727 109.006 68.2727H93.0966V61.9091H108.778C111.884 61.9091 114.384 61.4545 116.278 60.5455C118.191 59.6364 119.574 58.3485 120.426 56.6818C121.297 54.9962 121.733 52.9886 121.733 50.6591C121.733 48.3295 121.297 46.2936 120.426 44.5511C119.555 42.8087 118.163 41.464 116.25 40.517C114.337 39.5511 111.809 39.0682 108.665 39.0682H96.2784V91H89.233ZM116.619 64.8636L130.938 91H122.756L108.665 64.8636H116.619ZM147.45 32.8182V91H140.405V32.8182H147.45ZM163.963 32.8182L181.236 81.7955H181.918L199.19 32.8182H206.577L185.213 91H177.94L156.577 32.8182H163.963ZM222.685 32.8182V91H215.639V32.8182H222.685ZM268.629 47.3636C268.288 44.4848 266.906 42.25 264.482 40.6591C262.057 39.0682 259.084 38.2727 255.561 38.2727C252.985 38.2727 250.732 38.6894 248.8 39.5227C246.887 40.3561 245.391 41.5019 244.311 42.9602C243.25 44.4186 242.72 46.0758 242.72 47.9318C242.72 49.4848 243.089 50.8201 243.828 51.9375C244.586 53.036 245.552 53.9545 246.726 54.6932C247.9 55.4129 249.131 56.0095 250.419 56.483C251.707 56.9375 252.891 57.3068 253.97 57.5909L259.879 59.1818C261.394 59.5795 263.08 60.1288 264.936 60.8295C266.811 61.5303 268.601 62.4867 270.305 63.6989C272.029 64.892 273.449 66.4261 274.567 68.3011C275.684 70.1761 276.243 72.4773 276.243 75.2045C276.243 78.3485 275.419 81.1894 273.771 83.7273C272.143 86.2652 269.756 88.2822 266.612 89.7784C263.487 91.2746 259.69 92.0227 255.22 92.0227C251.054 92.0227 247.446 91.3504 244.396 90.0057C241.366 88.661 238.98 86.786 237.237 84.3807C235.514 81.9754 234.538 79.1818 234.311 76H241.584C241.773 78.197 242.512 80.0152 243.8 81.4545C245.107 82.875 246.754 83.9356 248.743 84.6364C250.75 85.3182 252.91 85.6591 255.22 85.6591C257.91 85.6591 260.324 85.2235 262.464 84.3523C264.605 83.4621 266.3 82.2311 267.55 80.6591C268.8 79.0682 269.425 77.2121 269.425 75.0909C269.425 73.1591 268.885 71.5871 267.805 70.375C266.726 69.1629 265.305 68.178 263.544 67.4205C261.783 66.6629 259.879 66 257.834 65.4318L250.675 63.3864C246.129 62.0795 242.531 60.214 239.879 57.7898C237.228 55.3655 235.902 52.1932 235.902 48.2727C235.902 45.0151 236.783 42.1742 238.544 39.75C240.324 37.3068 242.711 35.4129 245.703 34.0682C248.714 32.7045 252.076 32.0227 255.788 32.0227C259.538 32.0227 262.872 32.6951 265.788 34.0398C268.705 35.3655 271.016 37.1837 272.72 39.4943C274.444 41.8049 275.353 44.428 275.447 47.3636H268.629ZM294.872 32.8182V91H287.827V32.8182H294.872ZM358.089 61.9091C358.089 68.0455 356.982 73.3485 354.766 77.8182C352.55 82.2879 349.51 85.7348 345.646 88.1591C341.783 90.5833 337.37 91.7955 332.408 91.7955C327.446 91.7955 323.033 90.5833 319.169 88.1591C315.305 85.7348 312.266 82.2879 310.05 77.8182C307.834 73.3485 306.726 68.0455 306.726 61.9091C306.726 55.7727 307.834 50.4697 310.05 46C312.266 41.5303 315.305 38.0833 319.169 35.6591C323.033 33.2348 327.446 32.0227 332.408 32.0227C337.37 32.0227 341.783 33.2348 345.646 35.6591C349.51 38.0833 352.55 41.5303 354.766 46C356.982 50.4697 358.089 55.7727 358.089 61.9091ZM351.271 61.9091C351.271 56.8712 350.429 52.6193 348.743 49.1534C347.076 45.6875 344.813 43.0644 341.953 41.2841C339.112 39.5038 335.93 38.6136 332.408 38.6136C328.885 38.6136 325.694 39.5038 322.834 41.2841C319.993 43.0644 317.73 45.6875 316.044 49.1534C314.377 52.6193 313.544 56.8712 313.544 61.9091C313.544 66.947 314.377 71.1989 316.044 74.6648C317.73 78.1307 319.993 80.7538 322.834 82.5341C325.694 84.3144 328.885 85.2045 332.408 85.2045C335.93 85.2045 339.112 84.3144 341.953 82.5341C344.813 80.7538 347.076 78.1307 348.743 74.6648C350.429 71.1989 351.271 66.947 351.271 61.9091Z" fill="#FB5711"/>
<path d="M394.822 32.8182L412.095 81.7955H412.777L430.05 32.8182H437.436L416.072 91H408.8L387.436 32.8182H394.822ZM472.827 57.1364L466.804 58.8409C466.425 57.8371 465.866 56.8617 465.128 55.9148C464.408 54.9489 463.423 54.1534 462.173 53.5284C460.923 52.9034 459.323 52.5909 457.372 52.5909C454.702 52.5909 452.476 53.2064 450.696 54.4375C448.935 55.6496 448.054 57.1932 448.054 59.0682C448.054 60.7348 448.66 62.0511 449.872 63.017C451.084 63.983 452.978 64.7879 455.554 65.4318L462.031 67.0227C465.933 67.9697 468.84 69.4186 470.753 71.3693C472.666 73.3011 473.622 75.7917 473.622 78.8409C473.622 81.3409 472.902 83.5758 471.463 85.5455C470.043 87.5152 468.054 89.0682 465.497 90.2045C462.94 91.3409 459.967 91.9091 456.577 91.9091C452.126 91.9091 448.442 90.9432 445.526 89.0114C442.609 87.0795 440.762 84.2576 439.986 80.5455L446.349 78.9545C446.955 81.303 448.101 83.0644 449.787 84.2386C451.491 85.4129 453.717 86 456.463 86C459.588 86 462.069 85.3371 463.906 84.0114C465.762 82.6667 466.69 81.0568 466.69 79.1818C466.69 77.6667 466.16 76.3977 465.099 75.375C464.039 74.3333 462.41 73.5568 460.213 73.0455L452.94 71.3409C448.944 70.3939 446.009 68.9261 444.134 66.9375C442.277 64.9299 441.349 62.4205 441.349 59.4091C441.349 56.947 442.041 54.7689 443.423 52.875C444.825 50.9811 446.728 49.4943 449.134 48.4148C451.558 47.3352 454.304 46.7955 457.372 46.7955C461.69 46.7955 465.08 47.7424 467.543 49.6364C470.024 51.5303 471.785 54.0303 472.827 57.1364ZM556.214 61.9091C556.214 68.0455 555.107 73.3485 552.891 77.8182C550.675 82.2879 547.635 85.7348 543.771 88.1591C539.908 90.5833 535.495 91.7955 530.533 91.7955C525.571 91.7955 521.158 90.5833 517.294 88.1591C513.43 85.7348 510.391 82.2879 508.175 77.8182C505.959 73.3485 504.851 68.0455 504.851 61.9091C504.851 55.7727 505.959 50.4697 508.175 46C510.391 41.5303 513.43 38.0833 517.294 35.6591C521.158 33.2348 525.571 32.0227 530.533 32.0227C535.495 32.0227 539.908 33.2348 543.771 35.6591C547.635 38.0833 550.675 41.5303 552.891 46C555.107 50.4697 556.214 55.7727 556.214 61.9091ZM549.396 61.9091C549.396 56.8712 548.554 52.6193 546.868 49.1534C545.201 45.6875 542.938 43.0644 540.078 41.2841C537.237 39.5038 534.055 38.6136 530.533 38.6136C527.01 38.6136 523.819 39.5038 520.959 41.2841C518.118 43.0644 515.855 45.6875 514.169 49.1534C512.502 52.6193 511.669 56.8712 511.669 61.9091C511.669 66.947 512.502 71.1989 514.169 74.6648C515.855 78.1307 518.118 80.7538 520.959 82.5341C523.819 84.3144 527.01 85.2045 530.533 85.2045C534.055 85.2045 537.237 84.3144 540.078 82.5341C542.938 80.7538 545.201 78.1307 546.868 74.6648C548.554 71.1989 549.396 66.947 549.396 61.9091ZM586.129 47.3636V53.0455H563.516V47.3636H586.129ZM570.107 36.9091H576.811V78.5C576.811 80.3939 577.086 81.8144 577.635 82.7614C578.203 83.6894 578.923 84.3144 579.794 84.6364C580.684 84.9394 581.622 85.0909 582.607 85.0909C583.345 85.0909 583.951 85.053 584.425 84.9773C584.898 84.8826 585.277 84.8068 585.561 84.75L586.925 90.7727C586.47 90.9432 585.836 91.1136 585.021 91.2841C584.207 91.4735 583.175 91.5682 581.925 91.5682C580.031 91.5682 578.175 91.161 576.357 90.3466C574.557 89.5322 573.061 88.2917 571.868 86.625C570.694 84.9583 570.107 82.8561 570.107 80.3182V36.9091ZM603.857 64.75V91H597.152V32.8182H603.857V54.1818H604.425C605.447 51.928 606.982 50.1383 609.027 48.8125C611.091 47.4678 613.838 46.7955 617.266 46.7955C620.239 46.7955 622.843 47.392 625.078 48.5852C627.313 49.7595 629.046 51.5682 630.277 54.0114C631.527 56.4356 632.152 59.5227 632.152 63.2727V91H625.447V63.7273C625.447 60.2614 624.548 57.5814 622.749 55.6875C620.968 53.7746 618.497 52.8182 615.334 52.8182C613.137 52.8182 611.167 53.2822 609.425 54.2102C607.701 55.1383 606.338 56.4924 605.334 58.2727C604.349 60.053 603.857 62.2121 603.857 64.75ZM662.713 91.9091C658.509 91.9091 654.882 90.9811 651.832 89.125C648.802 87.25 646.463 84.6364 644.815 81.2841C643.187 77.9129 642.372 73.9924 642.372 69.5227C642.372 65.053 643.187 61.1136 644.815 57.7045C646.463 54.2765 648.755 51.6061 651.69 49.6932C654.645 47.7614 658.092 46.7955 662.031 46.7955C664.304 46.7955 666.548 47.1742 668.764 47.9318C670.98 48.6894 672.997 49.9205 674.815 51.625C676.634 53.3106 678.082 55.5455 679.162 58.3295C680.241 61.1136 680.781 64.5417 680.781 68.6136V71.4545H647.145V65.6591H673.963C673.963 63.197 673.471 61 672.486 59.0682C671.52 57.1364 670.137 55.6117 668.338 54.4943C666.558 53.3769 664.455 52.8182 662.031 52.8182C659.361 52.8182 657.05 53.4811 655.099 54.8068C653.168 56.1136 651.681 57.8182 650.639 59.9205C649.598 62.0227 649.077 64.2765 649.077 66.6818V70.5455C649.077 73.8409 649.645 76.6345 650.781 78.9261C651.937 81.1989 653.537 82.9318 655.582 84.125C657.628 85.2992 660.005 85.8864 662.713 85.8864C664.474 85.8864 666.065 85.6402 667.486 85.1477C668.925 84.6364 670.166 83.8788 671.207 82.875C672.249 81.8523 673.054 80.5833 673.622 79.0682L680.099 80.8864C679.418 83.0833 678.272 85.0152 676.662 86.6818C675.052 88.3295 673.063 89.6174 670.696 90.5455C668.329 91.4545 665.668 91.9091 662.713 91.9091ZM690.98 91V47.3636H697.457V53.9545H697.912C698.707 51.7955 700.147 50.0436 702.23 48.6989C704.313 47.3542 706.662 46.6818 709.276 46.6818C709.768 46.6818 710.384 46.6913 711.122 46.7102C711.861 46.7292 712.42 46.7576 712.798 46.7955V53.6136C712.571 53.5568 712.05 53.4716 711.236 53.358C710.44 53.2254 709.598 53.1591 708.707 53.1591C706.586 53.1591 704.692 53.6042 703.026 54.4943C701.378 55.3655 700.071 56.5777 699.105 58.1307C698.158 59.6648 697.685 61.4167 697.685 63.3864V91H690.98ZM751.655 57.1364L745.632 58.8409C745.253 57.8371 744.695 56.8617 743.956 55.9148C743.236 54.9489 742.251 54.1534 741.001 53.5284C739.751 52.9034 738.151 52.5909 736.2 52.5909C733.53 52.5909 731.304 53.2064 729.524 54.4375C727.763 55.6496 726.882 57.1932 726.882 59.0682C726.882 60.7348 727.488 62.0511 728.7 63.017C729.912 63.983 731.806 64.7879 734.382 65.4318L740.859 67.0227C744.761 67.9697 747.668 69.4186 749.581 71.3693C751.494 73.3011 752.45 75.7917 752.45 78.8409C752.45 81.3409 751.731 83.5758 750.291 85.5455C748.871 87.5152 746.882 89.0682 744.325 90.2045C741.768 91.3409 738.795 91.9091 735.405 91.9091C730.954 91.9091 727.27 90.9432 724.354 89.0114C721.437 87.0795 719.59 84.2576 718.814 80.5455L725.178 78.9545C725.784 81.303 726.929 83.0644 728.615 84.2386C730.32 85.4129 732.545 86 735.291 86C738.416 86 740.897 85.3371 742.734 84.0114C744.59 82.6667 745.518 81.0568 745.518 79.1818C745.518 77.6667 744.988 76.3977 743.928 75.375C742.867 74.3333 741.238 73.5568 739.041 73.0455L731.768 71.3409C727.772 70.3939 724.837 68.9261 722.962 66.9375C721.106 64.9299 720.178 62.4205 720.178 59.4091C720.178 56.947 720.869 54.7689 722.251 52.875C723.653 50.9811 725.556 49.4943 727.962 48.4148C730.386 47.3352 733.132 46.7955 736.2 46.7955C740.518 46.7955 743.909 47.7424 746.371 49.6364C748.852 51.5303 750.613 54.0303 751.655 57.1364Z" fill="black"/>
<rect width="12" height="12" fill="black"/>
<rect y="112" width="12" height="12" fill="black"/>
<rect x="782" y="112" width="12" height="12" fill="black"/>
<rect x="782" width="12" height="12" fill="black"/>
</svg>
